<svg width="89" height="230" viewBox="0 0 89 230" fill="none" xmlns="http://www.w3.org/2000/svg">
<path d="M70.4309 60.7969C79.8498 46.0574 75.5365 26.4731 60.7969 17.0543C46.0574 7.63549 26.4731 11.9488 17.0543 26.6883C7.63547 41.4279 11.9488 61.0121 26.6883 70.4309C41.4279 79.8498 61.0121 75.5365 70.4309 60.7969Z" fill="#AF191A"/>
<path d="M20.3388 22.318C15.1788 27.948 12.0388 35.458 12.0388 43.698C12.0388 61.188 26.2188 75.368 43.7088 75.368C51.9488 75.368 59.4488 72.218 65.0888 67.068L20.3388 22.318Z" fill="#D96066"/>
<path d="M65.4686 57.5499C73.0956 45.5396 69.5423 29.6204 57.532 21.9934C45.5217 14.3663 29.6025 17.9197 21.9755 29.93C14.3484 41.9403 17.9018 57.8595 29.9121 65.4865C41.9224 73.1136 57.8416 69.5602 65.4686 57.5499Z" fill="white"/>
<path opacity="0.7" d="M58.7987 38.2372C52.1887 35.3172 46.2687 36.6172 44.6687 37.0672C43.0687 36.6172 37.1487 35.3172 30.5387 38.2372C24.5687 40.8772 23.2587 41.8072 22.9787 42.0972C22.8987 42.1872 22.8987 42.2172 22.8987 42.2172C22.8987 42.2172 26.2487 50.7172 30.5387 53.4572C34.9887 56.3072 36.5387 57.4972 44.6687 57.2472C52.7887 57.4972 54.3487 56.3072 58.7987 53.4572C62.8087 50.8972 65.9987 43.2972 66.3987 42.3272C66.4287 42.2572 66.4387 42.2272 66.4387 42.2272C66.4387 42.2272 66.5587 41.6572 58.7987 38.2372Z" fill="#808181"/>
<path d="M31.8387 38.3872C27.3387 39.4172 24.2787 41.6872 24.2787 41.6872C24.2787 41.6872 27.1987 48.8972 27.7487 49.2072C27.8987 49.2872 28.5687 49.7872 29.4487 50.4672C29.0987 46.2472 30.0987 42.2072 31.8387 38.3872Z" fill="#963041"/>
<path d="M60.4087 39.5472C59.3787 38.9372 58.5487 38.4272 58.4087 38.2972C58.0087 37.9072 45.0687 38.5672 37.6087 37.9472C35.5287 37.7772 33.5787 37.9872 31.8387 38.3872C30.0987 42.1972 29.0987 46.2371 29.4487 50.4671C31.8087 52.2671 35.7287 55.3471 35.7287 55.3471L54.7587 53.8271L57.0287 51.2472C58.1787 48.9772 59.1187 46.5671 60.0287 44.2771C60.6087 42.8571 60.7587 41.1372 60.4087 39.5472Z" fill="#EE778A"/>
<path d="M60.4087 39.5472C60.7587 41.1372 60.6087 42.8572 60.0287 44.2772C59.1187 46.5572 58.1787 48.9672 57.0287 51.2472L65.0087 42.2172C65.0087 42.2172 62.3587 40.7072 60.4087 39.5472Z" fill="#963041"/>
<path d="M28.7988 47.4372C28.4788 46.7272 28.6188 45.7872 29.1688 45.2172C29.6088 44.7572 30.5188 44.5972 30.4988 45.4872C30.4788 46.2772 30.4688 47.0672 30.4488 47.8472C30.4188 49.3672 29.0788 48.0572 28.7988 47.4372Z" fill="white"/>
<path d="M30.0487 48.7372C29.5087 48.7372 28.8187 47.9472 28.6187 47.5172C28.2587 46.7372 28.4287 45.7172 29.0187 45.0972C29.2687 44.8372 29.6387 44.6672 29.9587 44.6672C30.1587 44.6672 30.3387 44.7372 30.4587 44.8572C30.6087 45.0072 30.6787 45.2172 30.6787 45.4972L30.6287 47.8572C30.6187 48.6172 30.2687 48.7372 30.0487 48.7372ZM29.9587 45.0272C29.7387 45.0272 29.4787 45.1572 29.2987 45.3372C28.8087 45.8572 28.6687 46.7072 28.9687 47.3672C29.1587 47.7772 29.7587 48.3772 30.0487 48.3772C30.2187 48.3772 30.2487 48.0072 30.2487 47.8472L30.2987 45.4872C30.2987 45.3172 30.2687 45.1872 30.1887 45.1072C30.1387 45.0472 30.0587 45.0272 29.9587 45.0272Z" fill="#D5D6D6"/>
<path d="M32.2687 46.0272C32.2987 46.6272 31.6387 47.5272 32.2687 48.9672C31.6787 49.0972 31.0187 48.9072 30.5887 48.4972C30.4087 48.3072 30.2487 47.0972 30.2287 46.7872C30.1887 45.6772 32.1987 44.6772 32.2687 46.0272Z" fill="white"/>
<path d="M31.8787 49.1872C31.3387 49.1872 30.8187 48.9772 30.4487 48.6172C30.1787 48.3272 30.0387 46.9072 30.0387 46.7872C30.0287 46.4272 30.1987 46.0572 30.5087 45.7372C30.8487 45.3972 31.2887 45.1872 31.6687 45.1872C32.1287 45.1872 32.4287 45.4972 32.4487 46.0072C32.4587 46.2172 32.3987 46.4372 32.3387 46.6972C32.1987 47.2472 32.0187 47.9372 32.4387 48.8872L32.5287 49.0872L32.3087 49.1372C32.1687 49.1672 32.0287 49.1872 31.8787 49.1872ZM31.6687 45.5572C31.3987 45.5572 31.0487 45.7272 30.7787 45.9972C30.5387 46.2372 30.4087 46.5172 30.4087 46.7772C30.4187 47.1472 30.5887 48.2272 30.7187 48.3672C31.0387 48.6772 31.5287 48.8572 31.9987 48.8172C31.6487 47.8672 31.8287 47.1472 31.9687 46.6172C32.0287 46.3872 32.0787 46.1972 32.0687 46.0372C32.0487 45.5572 31.7587 45.5572 31.6687 45.5572Z" fill="#D5D6D6"/>
<path d="M33.5187 49.5372C33.0787 49.6272 32.6287 49.3472 32.4087 48.9772C32.1787 48.6072 32.1187 48.1672 32.0587 47.7372C31.9987 47.2972 31.9587 46.8172 32.2087 46.4372C32.4787 46.0372 33.0887 45.8272 33.6187 45.8772C34.0387 45.9172 34.1187 46.1372 34.1287 46.5472C34.1487 47.3172 34.1687 48.0972 34.1887 48.8672C34.1887 48.9472 34.1887 49.0272 34.1587 49.1072C34.1187 49.2372 33.8087 49.4772 33.5187 49.5372Z" fill="white"/>
<path d="M33.3487 49.7372C32.9287 49.7372 32.4887 49.4772 32.2387 49.0672C31.9887 48.6572 31.9187 48.1772 31.8687 47.7572C31.7987 47.2472 31.7687 46.7472 32.0487 46.3372C32.3187 45.9472 32.8687 45.6872 33.4587 45.6872C33.5187 45.6872 33.5787 45.6872 33.6387 45.6972C34.2187 45.7472 34.3087 46.1372 34.3287 46.5472L34.3887 48.8672C34.3887 48.9572 34.3987 49.0772 34.3387 49.1872C34.2487 49.3672 33.8887 49.6472 33.5587 49.7072C33.4987 49.7272 33.4287 49.7372 33.3487 49.7372ZM33.4687 46.0572C33.0087 46.0572 32.5687 46.2472 32.3687 46.5372C32.1587 46.8472 32.1887 47.2672 32.2487 47.7072C32.2987 48.0972 32.3587 48.5372 32.5687 48.8772C32.7787 49.2172 33.1587 49.4172 33.4787 49.3472C33.7187 49.2972 33.9687 49.0872 33.9987 49.0272C34.0187 48.9872 34.0187 48.9272 34.0087 48.8672L33.9487 46.5472C33.9387 46.1472 33.8587 46.0772 33.6087 46.0472C33.5587 46.0672 33.5187 46.0572 33.4687 46.0572Z" fill="#D5D6D6"/>
<path d="M37.1288 46.8872C37.3388 47.8572 37.1288 48.7072 37.3988 49.6572C37.6188 50.4372 37.5488 51.0372 36.5488 51.0572C35.3088 51.0772 34.4888 50.5271 34.2388 49.3971C33.9988 48.3071 34.0588 47.5371 34.3188 46.4671C34.3288 46.4271 34.3388 46.3772 34.3788 46.3472C34.4288 46.3172 34.4888 46.3271 34.5488 46.3371C35.5488 46.5671 36.2588 46.7072 37.1288 46.8872Z" fill="white"/>
<path d="M36.4788 51.2472C35.1788 51.2472 34.3188 50.6072 34.0588 49.4472C33.8288 48.3972 33.8488 47.6072 34.1388 46.4372C34.1488 46.3872 34.1788 46.2872 34.2688 46.2172C34.3188 46.1772 34.3888 46.1572 34.4588 46.1572C34.5088 46.1572 34.5488 46.1672 34.5888 46.1672L37.2888 46.7272L37.3088 46.8472C37.4088 47.3172 37.4188 47.7572 37.4188 48.1772C37.4288 48.6572 37.4388 49.1172 37.5688 49.6072C37.6688 49.9772 37.7788 50.5072 37.4988 50.8672C37.3188 51.1072 36.9988 51.2272 36.5488 51.2372C36.5288 51.2472 36.5088 51.2472 36.4788 51.2472ZM34.5088 46.5372C34.2288 47.6472 34.2088 48.3872 34.4288 49.3772C34.6488 50.3872 35.3888 50.9172 36.5488 50.8872C36.8788 50.8772 37.0988 50.8072 37.2088 50.6672C37.3488 50.4972 37.3488 50.1872 37.2188 49.7172C37.0688 49.1872 37.0588 48.6872 37.0588 48.1972C37.0488 47.8272 37.0488 47.4472 36.9788 47.0472L34.5088 46.5372C34.5188 46.5372 34.5188 46.5372 34.5088 46.5372Z" fill="#D5D6D6"/>
<path d="M37.5887 50.9872C37.0487 50.0972 37.2987 49.1672 37.3187 48.2072C37.3287 47.6572 37.1087 47.2072 37.6687 46.8772C38.5387 46.3572 39.6687 46.9272 40.5887 46.9372C40.6587 46.9372 40.7287 46.9372 40.7887 46.9672C40.9587 47.0572 40.9487 47.0772 40.9487 50.0772C40.9487 50.6072 40.8387 50.7372 40.4087 50.9372C39.1987 51.4772 38.2587 52.0872 37.5887 50.9872Z" fill="white"/>
<path d="M38.5388 51.7772C38.0688 51.7772 37.7088 51.5471 37.4188 51.0771C36.9688 50.3371 37.0288 49.5772 37.0888 48.8472C37.1088 48.6372 37.1188 48.4172 37.1288 48.1972C37.1288 48.0772 37.1188 47.9572 37.1088 47.8372C37.0788 47.4572 37.0388 47.0172 37.5688 46.7072C37.8488 46.5472 38.1688 46.4672 38.5488 46.4672C38.9188 46.4672 39.2888 46.5372 39.6588 46.6172C39.9888 46.6872 40.3088 46.7472 40.5988 46.7472C40.6688 46.7472 40.7888 46.7472 40.8888 46.8072C41.1388 46.9472 41.1388 46.9472 41.1388 49.5672V50.0672C41.1388 50.6472 41.0088 50.8572 40.4988 51.0972C40.3788 51.1572 40.2588 51.2072 40.1388 51.2672C39.5288 51.5372 39.0188 51.7772 38.5388 51.7772ZM38.5388 46.8271C38.2288 46.8271 37.9788 46.8872 37.7588 47.0172C37.4388 47.2072 37.4388 47.4072 37.4788 47.8072C37.4888 47.9272 37.4988 48.0572 37.4988 48.1972C37.4988 48.4272 37.4788 48.6472 37.4588 48.8672C37.4088 49.5772 37.3488 50.2472 37.7388 50.8872C37.9588 51.2472 38.2088 51.4072 38.5288 51.4072C38.9188 51.4072 39.3988 51.1772 39.9488 50.9172C40.0688 50.8572 40.1888 50.8072 40.3088 50.7472C40.6788 50.5772 40.7388 50.5072 40.7388 50.0472V49.5472C40.7388 47.9172 40.7388 47.2272 40.6888 47.1072C40.6888 47.1072 40.6788 47.1072 40.6788 47.0972C40.6588 47.0872 40.6088 47.0872 40.5788 47.0872C40.2488 47.0872 39.9088 47.0172 39.5688 46.9472C39.2288 46.8972 38.8688 46.8271 38.5388 46.8271Z" fill="#D5D6D6"/>
<path d="M41.2087 47.0672C41.4387 46.9172 41.7487 46.8972 42.0287 46.8972C44.1587 46.8372 44.2387 46.8072 44.4587 46.9372C44.6987 47.0772 44.7787 47.3772 44.7787 47.6372C44.7787 48.0172 44.8987 51.3872 44.7787 51.4172C44.2487 51.5272 44.1787 51.8372 43.3787 51.6672C42.6787 51.5172 41.9887 51.2972 41.3387 50.9872C41.2087 50.2472 40.4587 47.5672 41.2087 47.0672Z" fill="white"/>
<path d="M43.7888 51.8972C43.6588 51.8972 43.5088 51.8772 43.3288 51.8472C42.6088 51.6972 41.9088 51.4672 41.2488 51.1572L41.1588 51.1172L41.1388 51.0272C41.1188 50.9072 41.0788 50.7372 41.0388 50.5372C40.6888 48.9572 40.4088 47.3772 41.0888 46.9272C41.3788 46.7372 41.7288 46.7272 42.0088 46.7172C42.3988 46.7072 42.7188 46.6972 42.9888 46.6872C43.4388 46.6772 43.7288 46.6672 43.9288 46.6672C44.2588 46.6672 44.3788 46.6872 44.5388 46.7772C44.7988 46.9272 44.9488 47.2372 44.9488 47.6372C44.9488 47.7072 44.9588 47.8972 44.9588 48.1472C45.0388 51.5472 45.0088 51.5472 44.7988 51.5972C44.6388 51.6272 44.5288 51.6772 44.4188 51.7372C44.2588 51.8172 44.0888 51.8972 43.7888 51.8972ZM41.5088 50.8672C42.1188 51.1472 42.7588 51.3572 43.4188 51.4872C43.5688 51.5172 43.6888 51.5372 43.7988 51.5372C44.0088 51.5372 44.1288 51.4772 44.2788 51.4072C44.3788 51.3572 44.4888 51.3072 44.6288 51.2672C44.6788 50.8172 44.6288 48.9072 44.6088 48.1572C44.5988 47.9072 44.5988 47.7172 44.5988 47.6372C44.5988 47.5072 44.5788 47.2072 44.3688 47.0872C44.2988 47.0472 44.2588 47.0272 43.9488 47.0272C43.7488 47.0272 43.4588 47.0372 43.0188 47.0472C42.7488 47.0572 42.4288 47.0671 42.0388 47.0771C41.7388 47.0871 41.4988 47.0972 41.3188 47.2172C40.7888 47.5672 41.2388 49.5872 41.4188 50.4472C41.4488 50.6172 41.4888 50.7572 41.5088 50.8672Z" fill="#D5D6D6"/>
<path d="M60.8588 47.4372C61.1788 46.7272 61.0388 45.7872 60.4888 45.2172C60.0488 44.7572 59.1388 44.5972 59.1588 45.4872C59.1688 46.2772 59.1888 47.0672 59.2088 47.8472C59.2388 49.3672 60.5788 48.0572 60.8588 47.4372Z" fill="white"/>
<path d="M59.6087 48.7372C59.3987 48.7372 59.0387 48.6172 59.0287 47.8472L58.9787 45.4872C58.9687 45.2072 59.0487 44.9972 59.1987 44.8472C59.3287 44.7272 59.4987 44.6572 59.6987 44.6572C60.0187 44.6572 60.3887 44.8272 60.6387 45.0872C61.2287 45.7072 61.3987 46.7272 61.0387 47.5072C60.8387 47.9472 60.1487 48.7372 59.6087 48.7372ZM59.6987 45.0272C59.5987 45.0272 59.5187 45.0572 59.4687 45.1072C59.3987 45.1772 59.3587 45.3072 59.3587 45.4872L59.4087 47.8472C59.4087 48.0072 59.4387 48.3772 59.6087 48.3772C59.9087 48.3772 60.5087 47.7772 60.6887 47.3672C60.9887 46.7072 60.8487 45.8572 60.3587 45.3372C60.1787 45.1472 59.9087 45.0272 59.6987 45.0272Z" fill="#D5D6D6"/>
<path d="M57.3888 46.0272C57.3588 46.6272 58.0188 47.5272 57.3888 48.9672C57.9788 49.0972 58.6388 48.9072 59.0688 48.4972C59.2488 48.3072 59.4088 47.0972 59.4288 46.7872C59.4688 45.6772 57.4588 44.6772 57.3888 46.0272Z" fill="white"/>
<path d="M57.7688 49.1872C57.6288 49.1872 57.4788 49.1672 57.3488 49.1472L57.1288 49.0972L57.2188 48.8972C57.6388 47.9472 57.4588 47.2572 57.3188 46.7072C57.2488 46.4472 57.1988 46.2272 57.2088 46.0172C57.2388 45.4972 57.5288 45.1972 57.9888 45.1972C58.3688 45.1972 58.8088 45.4072 59.1488 45.7472C59.4688 46.0672 59.6288 46.4372 59.6188 46.7972C59.6188 46.9172 59.4788 48.3372 59.2188 48.6172C58.8388 48.9772 58.3088 49.1872 57.7688 49.1872ZM57.6588 48.8172C57.6988 48.8172 57.7388 48.8172 57.7788 48.8172C58.2088 48.8172 58.6488 48.6472 58.9388 48.3572C59.0588 48.2172 59.2288 47.1472 59.2388 46.7672C59.2488 46.5072 59.1188 46.2272 58.8688 45.9872C58.6088 45.7272 58.2488 45.5472 57.9788 45.5472C57.8888 45.5472 57.5988 45.5472 57.5688 46.0272C57.5588 46.1872 57.6088 46.3772 57.6688 46.6072C57.8188 47.1472 58.0088 47.8672 57.6588 48.8172Z" fill="#D5D6D6"/>
<path d="M56.1287 49.5372C56.5687 49.6272 57.0087 49.3472 57.2387 48.9772C57.4687 48.6072 57.5287 48.1672 57.5887 47.7372C57.6487 47.2972 57.6887 46.8172 57.4387 46.4372C57.1687 46.0372 56.5587 45.8272 56.0287 45.8772C55.6087 45.9172 55.5287 46.1372 55.5187 46.5472C55.4987 47.3172 55.4787 48.0972 55.4587 48.8672C55.4587 48.9472 55.4587 49.0272 55.4887 49.1072C55.5387 49.2372 55.8487 49.4772 56.1287 49.5372Z" fill="white"/>
<path d="M56.2988 49.7372C56.2288 49.7372 56.1588 49.7272 56.0888 49.7172C55.7588 49.6472 55.3888 49.3772 55.3088 49.1972C55.2588 49.0872 55.2588 48.9672 55.2588 48.8772L55.3188 46.5572C55.3288 46.1472 55.4188 45.7572 56.0088 45.7072C56.0688 45.6972 56.1288 45.6972 56.1888 45.6972C56.7788 45.6972 57.3288 45.9472 57.5988 46.3472C57.9088 46.7972 57.8288 47.3772 57.7788 47.7672C57.7288 48.1872 57.6588 48.6671 57.4088 49.0771C57.1588 49.4771 56.7288 49.7372 56.2988 49.7372ZM56.1888 46.0572C56.1388 46.0572 56.0988 46.0572 56.0488 46.0672C55.7888 46.0872 55.7188 46.1572 55.7088 46.5672L55.6488 48.8872C55.6488 48.9472 55.6488 49.0072 55.6588 49.0472C55.6888 49.1072 55.9388 49.3172 56.1788 49.3672C56.4988 49.4372 56.8788 49.2272 57.0888 48.8972C57.2988 48.5572 57.3588 48.1172 57.4088 47.7272C57.4688 47.2872 57.4988 46.8672 57.2888 46.5572C57.0888 46.2572 56.6488 46.0572 56.1888 46.0572Z" fill="#D5D6D6"/>
<path d="M52.5288 46.8872C52.3188 47.8572 52.5288 48.7072 52.2588 49.6572C52.0388 50.4372 52.1088 51.0372 53.1088 51.0572C54.3488 51.0772 55.1688 50.5271 55.4188 49.3971C55.6588 48.3071 55.5988 47.5371 55.3388 46.4671C55.3288 46.4271 55.3188 46.3772 55.2788 46.3472C55.2288 46.3172 55.1688 46.3271 55.1088 46.3371C54.1088 46.5671 53.3988 46.7072 52.5288 46.8872Z" fill="white"/>
<path d="M53.1787 51.2472C53.1487 51.2472 53.1287 51.2472 53.0987 51.2472C52.6487 51.2372 52.3287 51.1172 52.1487 50.8772C51.8687 50.5172 51.9687 49.9872 52.0787 49.6172C52.2187 49.1272 52.2187 48.6672 52.2287 48.1872C52.2387 47.7672 52.2387 47.3272 52.3387 46.8572L52.3587 46.7372L55.0587 46.1772C55.0987 46.1672 55.1387 46.1672 55.1887 46.1672C55.2687 46.1672 55.3287 46.1872 55.3887 46.2272C55.4787 46.2972 55.5087 46.3972 55.5187 46.4472C55.8087 47.6172 55.8387 48.4072 55.5987 49.4572C55.3387 50.6072 54.4787 51.2472 53.1787 51.2472ZM52.6887 47.0472C52.6187 47.4472 52.6087 47.8272 52.6087 48.1972C52.5987 48.6772 52.5887 49.1772 52.4487 49.7172C52.3187 50.1772 52.3287 50.4972 52.4587 50.6672C52.5687 50.8072 52.7887 50.8872 53.1187 50.8872C54.2787 50.9072 55.0087 50.3872 55.2387 49.3772C55.4587 48.3872 55.4387 47.6472 55.1587 46.5372L52.6887 47.0472Z" fill="#D5D6D6"/>
<path d="M52.0687 50.9872C52.6087 50.0972 52.3587 49.1672 52.3387 48.2072C52.3287 47.6572 52.5487 47.2072 51.9887 46.8772C51.1187 46.3572 49.9887 46.9272 49.0687 46.9372C48.9987 46.9372 48.9287 46.9372 48.8687 46.9672C48.6987 47.0572 48.7087 47.0772 48.7087 50.0772C48.7087 50.6072 48.8187 50.7372 49.2487 50.9372C50.4587 51.4772 51.3987 52.0872 52.0687 50.9872Z" fill="white"/>
<path d="M51.1187 51.7772C50.6387 51.7772 50.1287 51.5372 49.5387 51.2572C49.4187 51.1972 49.2987 51.1472 49.1787 51.0872C48.6587 50.8472 48.5287 50.6372 48.5287 50.0572V49.5572C48.5287 46.9372 48.5287 46.9372 48.7787 46.7972C48.8787 46.7372 48.9887 46.7372 49.0687 46.7372C49.3587 46.7372 49.6687 46.6772 50.0087 46.6072C50.3687 46.5372 50.7487 46.4572 51.1187 46.4572C51.4987 46.4572 51.8187 46.5372 52.0987 46.6972C52.6287 47.0072 52.5887 47.4471 52.5587 47.8271C52.5487 47.9471 52.5387 48.0572 52.5387 48.1872C52.5387 48.4072 52.5587 48.6272 52.5787 48.8372C52.6387 49.5772 52.6887 50.3372 52.2487 51.0672C51.9487 51.5472 51.5787 51.7772 51.1187 51.7772ZM48.9587 47.1272C48.9087 47.2472 48.9087 47.9372 48.9087 49.5672V50.0672C48.9087 50.5272 48.9687 50.5972 49.3387 50.7672C49.4587 50.8272 49.5787 50.8772 49.6987 50.9372C50.2487 51.1972 50.7287 51.4272 51.1187 51.4272C51.4487 51.4272 51.6887 51.2672 51.9087 50.9072C52.2987 50.2672 52.2487 49.5972 52.1887 48.8872C52.1687 48.6672 52.1587 48.4472 52.1487 48.2172C52.1487 48.0772 52.1587 47.9471 52.1687 47.8271C52.1987 47.4271 52.2087 47.2272 51.8887 47.0372C51.6687 46.9072 51.4187 46.8472 51.1087 46.8472C50.7787 46.8472 50.4187 46.9172 50.0787 46.9872C49.7387 47.0572 49.3987 47.1272 49.0687 47.1272C49.0387 47.1272 48.9787 47.1272 48.9687 47.1372C48.9687 47.1172 48.9587 47.1172 48.9587 47.1272Z" fill="#D5D6D6"/>
<path d="M48.4488 47.0672C48.2188 46.9172 47.9088 46.8972 47.6288 46.8972C45.4988 46.8372 45.4188 46.8072 45.1988 46.9372C44.9588 47.0772 44.8788 47.3772 44.8788 47.6372C44.8788 48.0172 44.7588 51.3872 44.8788 51.4172C45.4088 51.5272 45.4788 51.8372 46.2788 51.6672C46.9788 51.5172 47.6688 51.2972 48.3188 50.9872C48.4488 50.2472 49.1988 47.5672 48.4488 47.0672Z" fill="white"/>
<path d="M45.8687 51.8972C45.5787 51.8972 45.3987 51.8172 45.2287 51.7372C45.1087 51.6872 45.0087 51.6272 44.8487 51.5972C44.6387 51.5572 44.5987 51.5472 44.6887 48.1472C44.6987 47.8972 44.6987 47.7072 44.6987 47.6372C44.6987 47.2372 44.8487 46.9272 45.1087 46.7772C45.2687 46.6872 45.3887 46.6672 45.7187 46.6672C45.9187 46.6672 46.2187 46.6772 46.6587 46.6872C46.9287 46.6972 47.2487 46.7072 47.6387 46.7172C47.9187 46.7272 48.2687 46.7372 48.5587 46.9272C49.2387 47.3772 48.9587 48.9572 48.6087 50.5372C48.5687 50.7372 48.5287 50.9072 48.5087 51.0272L48.4887 51.1172L48.3987 51.1572C47.7387 51.4672 47.0387 51.6972 46.3187 51.8472C46.1487 51.8772 45.9987 51.8972 45.8687 51.8972ZM45.0387 51.2672C45.1787 51.3072 45.2887 51.3572 45.3887 51.4072C45.5387 51.4772 45.6587 51.5372 45.8687 51.5372C45.9787 51.5372 46.0987 51.5272 46.2487 51.4872C46.9087 51.3472 47.5487 51.1372 48.1587 50.8672C48.1787 50.7572 48.2087 50.6172 48.2487 50.4572C48.4387 49.5972 48.8787 47.5672 48.3487 47.2272C48.1687 47.1072 47.9287 47.0972 47.6287 47.0872C47.2387 47.0772 46.9187 47.0672 46.6487 47.0572C46.2087 47.0472 45.9187 47.0372 45.7187 47.0372C45.4087 47.0372 45.3687 47.0572 45.2987 47.0972C45.0987 47.2172 45.0687 47.5172 45.0687 47.6472C45.0687 47.7172 45.0587 47.9072 45.0587 48.1672C45.0387 48.9072 44.9887 50.8172 45.0387 51.2672Z" fill="#D5D6D6"/>
<path d="M28.2887 40.1872C28.3287 40.1772 28.3787 40.1971 28.4087 40.2171C29.0587 40.4971 29.5187 41.1171 29.7687 41.7771C30.0187 42.4371 30.0887 43.1572 30.1387 43.8572C30.1487 44.0072 30.1587 44.1672 30.0687 44.2972C30.0087 44.3872 29.9087 44.4471 29.7987 44.4671C29.3387 44.5871 28.8987 44.2171 28.5987 43.8471C28.1887 43.3371 27.8487 42.7572 27.7287 42.1172C27.6087 41.4772 27.7387 40.7671 28.1687 40.2771C28.2087 40.2371 28.2387 40.1972 28.2887 40.1872Z" fill="white"/>
<path d="M29.6287 44.6772C29.1387 44.6772 28.7287 44.2871 28.4687 43.9671C27.9687 43.3471 27.6687 42.7571 27.5587 42.1571C27.4187 41.4071 27.5987 40.6571 28.0487 40.1571C28.0787 40.1171 28.1587 40.0371 28.2687 40.0171C28.3587 40.0071 28.4287 40.0272 28.4987 40.0572C29.1387 40.3372 29.6587 40.9271 29.9487 41.7171C30.2087 42.3971 30.2687 43.1171 30.3287 43.8471C30.3387 43.9971 30.3587 44.2171 30.2287 44.3971C30.1487 44.5171 30.0187 44.5971 29.8587 44.6471C29.7787 44.6671 29.6987 44.6772 29.6287 44.6772ZM28.3287 40.3772C28.3287 40.3772 28.3187 40.3871 28.3087 40.3971C27.9387 40.8071 27.7887 41.4471 27.9087 42.0871C28.0087 42.6271 28.2787 43.1672 28.7487 43.7372C28.9187 43.9572 29.2687 44.3172 29.6287 44.3172C29.6787 44.3172 29.7187 44.3072 29.7587 44.2972C29.8287 44.2772 29.8887 44.2372 29.9187 44.1972C29.9687 44.1272 29.9587 44.0072 29.9587 43.8772C29.9087 43.1672 29.8387 42.4771 29.5987 41.8471C29.3387 41.1571 28.8787 40.6272 28.3387 40.3872C28.3387 40.3772 28.3287 40.3772 28.3287 40.3772Z" fill="#D5D6D6"/>
<path d="M30.2687 40.6372C31.1287 41.3872 31.3587 42.6172 31.4587 43.7472C31.5087 44.3072 31.5487 44.8672 31.5687 45.4272C31.0387 45.5772 30.4587 45.2771 30.1287 44.8271C29.7987 44.3871 29.6687 43.8272 29.5787 43.2772C29.4287 42.3972 29.3787 41.4272 29.8787 40.6872C29.9287 40.6072 30.0087 40.5272 30.0987 40.5272C30.1587 40.5472 30.2187 40.5872 30.2687 40.6372Z" fill="white"/>
<path d="M31.2887 45.6572C30.8087 45.6572 30.3087 45.3872 29.9787 44.9472C29.6287 44.4772 29.4887 43.8872 29.3887 43.3172C29.2487 42.4872 29.1587 41.4272 29.7187 40.5972C29.7587 40.5372 29.8787 40.3572 30.0887 40.3572C30.2187 40.3572 30.3087 40.4272 30.3887 40.4972C31.3087 41.2972 31.5387 42.5772 31.6487 43.7372C31.6987 44.2972 31.7387 44.8672 31.7587 45.4272V45.5672L31.6187 45.6072C31.5187 45.6372 31.3987 45.6572 31.2887 45.6572ZM30.0887 40.7272C30.0887 40.7272 30.0687 40.7472 30.0187 40.8072C29.5287 41.5272 29.6187 42.4972 29.7487 43.2572C29.8387 43.7772 29.9587 44.3172 30.2687 44.7272C30.5487 45.0972 30.9887 45.3272 31.3787 45.2872C31.3587 44.7772 31.3287 44.2772 31.2787 43.7672C31.1787 42.6872 30.9687 41.4872 30.1487 40.7772C30.1087 40.7372 30.0987 40.7272 30.0887 40.7272Z" fill="#D5D6D6"/>
<path d="M31.5887 40.6472C31.6487 40.6672 31.6987 40.7172 31.7287 40.7672C32.9887 42.4572 33.1287 44.0172 33.3087 46.0272C31.6687 45.8572 31.3987 45.3172 31.1187 43.7172C30.9587 42.7872 31.0187 41.8072 31.3087 40.9072C31.3487 40.7772 31.4487 40.6072 31.5887 40.6472Z" fill="white"/>
<path d="M33.5086 46.2272L33.2886 46.2072C31.5086 46.0272 31.2186 45.3572 30.9386 43.7472C30.7686 42.7772 30.8386 41.7772 31.1286 40.8472C31.2086 40.5972 31.3686 40.4472 31.5486 40.4472C31.5786 40.4472 31.6086 40.4472 31.6386 40.4572C31.7686 40.4872 31.8386 40.5872 31.8786 40.6472C33.1786 42.3872 33.3186 43.9872 33.4886 45.9972L33.5086 46.2272ZM31.5486 40.8372C31.5286 40.8572 31.4986 40.9072 31.4786 40.9772C31.1986 41.8472 31.1386 42.7872 31.2986 43.6972C31.5486 45.1272 31.7486 45.6471 33.1086 45.8271C32.9486 43.9771 32.7786 42.4872 31.5886 40.8872C31.5686 40.8572 31.5586 40.8372 31.5486 40.8372Z" fill="#D5D6D6"/>
<path d="M33.4587 40.5572C33.8087 40.3572 34.2487 40.4172 34.6787 40.9472C35.3187 41.7372 35.0387 42.8672 35.1487 43.7972C35.2587 44.6872 35.3887 45.3671 35.1987 46.2671C33.5287 46.4871 32.7687 45.3971 32.5087 43.8271C32.3487 42.7871 32.3987 41.1572 33.4587 40.5572Z" fill="white"/>
<path d="M34.7887 46.4872C33.8687 46.4872 32.6887 46.0372 32.3387 43.8672C32.1287 42.5872 32.2987 41.0172 33.3687 40.4072C33.5187 40.3272 33.6787 40.2772 33.8387 40.2772C34.0787 40.2772 34.4387 40.3772 34.8187 40.8472C35.3087 41.4472 35.2987 42.1972 35.2987 42.9272C35.2987 43.2272 35.2987 43.5172 35.3287 43.7872L35.3587 44.0472C35.4587 44.8172 35.5487 45.4772 35.3787 46.3172L35.3487 46.4472L35.2187 46.4672C35.0787 46.4672 34.9287 46.4872 34.7887 46.4872ZM33.8387 40.6372C33.7387 40.6372 33.6387 40.6672 33.5487 40.7172C32.6387 41.2272 32.5187 42.6972 32.6987 43.7972C32.9487 45.3372 33.6487 46.1072 34.7887 46.1072C34.8687 46.1072 34.9587 46.1072 35.0487 46.0972C35.1787 45.3772 35.0987 44.7971 35.0087 44.0771L34.9787 43.8172C34.9387 43.5272 34.9387 43.2172 34.9487 42.9072C34.9487 42.2172 34.9587 41.5572 34.5487 41.0572C34.3087 40.7872 34.0687 40.6372 33.8387 40.6372Z" fill="#D5D6D6"/>
<path d="M35.8886 40.3772C36.0286 40.1172 36.2186 39.8772 36.4886 39.7572C36.8986 39.5772 37.4086 39.7372 37.7286 40.0472C38.0486 40.3672 38.2186 40.7972 38.3286 41.2372C38.5886 42.2572 38.5886 43.3272 38.5786 44.3772C38.5786 45.0872 38.5686 45.7872 38.5686 46.4972C38.5686 46.5772 38.5686 46.6572 38.5186 46.7172C38.4586 46.7972 38.3486 46.8272 38.2486 46.8372C37.4986 46.9272 36.7186 46.7772 36.0586 46.4072C35.8686 46.3072 35.6886 46.1772 35.5986 45.9772C35.5286 45.8372 35.5286 45.6772 35.5186 45.5272C35.4886 44.9272 35.4686 44.3272 35.4386 43.7272C35.4086 43.1072 35.3886 42.4872 35.4586 41.8772C35.5086 41.3572 35.6386 40.8372 35.8886 40.3772Z" fill="white"/>
<path d="M37.8287 47.0472C37.1787 47.0472 36.5387 46.8772 35.9687 46.5672C35.7787 46.4572 35.5487 46.3072 35.4287 46.0572C35.3487 45.8772 35.3387 45.6872 35.3287 45.5372L35.2487 43.7372C35.2187 43.1272 35.1987 42.4872 35.2687 41.8572C35.3387 41.2372 35.4887 40.7272 35.7287 40.2872C35.9187 39.9372 36.1487 39.7072 36.4187 39.5872C36.5587 39.5272 36.7087 39.4972 36.8687 39.4972C37.2187 39.4972 37.5887 39.6572 37.8587 39.9172C38.2487 40.2972 38.4187 40.8272 38.5087 41.1972C38.7787 42.2472 38.7687 43.3372 38.7687 44.3872L38.7587 46.5072C38.7587 46.5872 38.7587 46.7171 38.6787 46.8271C38.5687 46.9871 38.3687 47.0172 38.2787 47.0272C38.1187 47.0372 37.9787 47.0472 37.8287 47.0472ZM36.8587 39.8572C36.7487 39.8572 36.6487 39.8772 36.5587 39.9172C36.3687 40.0072 36.1987 40.1872 36.0387 40.4572C35.8187 40.8472 35.6887 41.3172 35.6287 41.8872C35.5587 42.4872 35.5887 43.1172 35.6187 43.7172L35.6987 45.5172C35.7087 45.6572 35.7087 45.7872 35.7587 45.8972C35.8287 46.0572 35.9987 46.1672 36.1487 46.2372C36.6587 46.5172 37.2387 46.6672 37.8287 46.6672C37.9587 46.6672 38.0987 46.6572 38.2287 46.6472C38.3387 46.6372 38.3687 46.6172 38.3687 46.6072C38.3787 46.5872 38.3787 46.5272 38.3787 46.4872L38.3887 44.3672C38.3987 43.3372 38.3987 42.2772 38.1487 41.2672C38.0187 40.7572 37.8387 40.4072 37.5987 40.1572C37.3987 39.9772 37.1187 39.8572 36.8587 39.8572Z" fill="#D5D6D6"/>
<path d="M43.4387 40.4972C43.4787 40.5372 43.5187 40.5772 43.5487 40.6172C43.9587 41.1072 44.1587 41.7372 44.2887 42.3572C44.4287 43.0772 44.4787 43.8172 44.5287 44.5472C44.5887 45.4472 44.9387 46.7972 43.9987 47.3172C43.2287 47.7372 41.7087 47.4672 40.9187 47.3672C39.4187 47.1572 38.8487 47.3871 38.7487 45.7671C38.6887 44.8071 38.6687 43.7171 38.8687 42.7671C39.0787 41.7571 39.5287 40.4372 40.5587 39.9872C41.4987 39.5672 42.7187 39.7672 43.4387 40.4972Z" fill="white"/>
<path d="M42.7787 47.7272C42.1887 47.7272 41.5587 47.6371 41.1087 47.5771L40.8987 47.5472C40.6787 47.5172 40.4787 47.4972 40.2887 47.4772C39.2387 47.3672 38.6587 47.3072 38.5687 45.7772C38.5087 44.8872 38.4787 43.7472 38.6887 42.7372C39.0187 41.1872 39.6187 40.2071 40.4787 39.8271C40.8287 39.6771 41.2187 39.5972 41.6087 39.5972C42.3687 39.5972 43.0787 39.8872 43.5787 40.3872C43.6187 40.4272 43.6587 40.4772 43.6987 40.5172C44.0687 40.9572 44.3187 41.5372 44.4787 42.3372C44.6187 43.0672 44.6787 43.8172 44.7287 44.5472C44.7387 44.6972 44.7587 44.8472 44.7787 45.0172C44.8787 45.8972 44.9987 46.9972 44.0987 47.4872C43.7787 47.6472 43.3487 47.7272 42.7787 47.7272ZM41.6087 39.9472C41.2687 39.9472 40.9287 40.0172 40.6287 40.1472C39.8787 40.4772 39.3487 41.3672 39.0487 42.7972C38.8487 43.7672 38.8787 44.8772 38.9387 45.7472C39.0187 46.9672 39.2987 46.9972 40.3387 47.1072C40.5187 47.1272 40.7287 47.1472 40.9587 47.1772L41.1687 47.2072C41.6187 47.2672 42.2287 47.3572 42.7887 47.3572C43.2887 47.3572 43.6687 47.2872 43.9187 47.1472C44.5987 46.7772 44.4987 45.8472 44.4087 45.0372C44.3887 44.8672 44.3687 44.7072 44.3587 44.5472C44.3087 43.8272 44.2587 43.0872 44.1187 42.3772C43.9687 41.6372 43.7487 41.1072 43.4187 40.7172C43.3887 40.6772 43.3487 40.6472 43.3187 40.6072C42.8887 40.1972 42.2687 39.9472 41.6087 39.9472Z" fill="#D5D6D6"/>
<path d="M60.9986 40.1872C60.9586 40.1772 60.9087 40.1971 60.8687 40.2171C60.2187 40.4971 59.7587 41.1171 59.5087 41.7771C59.2587 42.4371 59.1886 43.1572 59.1386 43.8572C59.1286 44.0072 59.1186 44.1672 59.2086 44.2972C59.2686 44.3872 59.3686 44.4471 59.4786 44.4671C59.9386 44.5871 60.3786 44.2171 60.6786 43.8471C61.0886 43.3371 61.4286 42.7572 61.5586 42.1172C61.6786 41.4772 61.5487 40.7671 61.1187 40.2771C61.0887 40.2371 61.0486 40.1972 60.9986 40.1872Z" fill="white"/>
<path d="M59.6687 44.6772C59.5887 44.6772 59.5187 44.6671 59.4387 44.6471C59.2787 44.6071 59.1487 44.5171 59.0687 44.3971C58.9487 44.2171 58.9587 43.9871 58.9687 43.8471C59.0187 43.1071 59.0887 42.3871 59.3487 41.7171C59.6487 40.9271 60.1587 40.3372 60.7987 40.0572C60.8587 40.0272 60.9387 40.0071 61.0287 40.0171C61.1487 40.0371 61.2187 40.1171 61.2487 40.1571C61.6987 40.6571 61.8787 41.4071 61.7387 42.1571C61.6287 42.7571 61.3287 43.3471 60.8287 43.9671C60.5687 44.2871 60.1487 44.6772 59.6687 44.6772ZM60.9687 40.3772C60.9687 40.3772 60.9587 40.3772 60.9487 40.3872C60.4087 40.6272 59.9487 41.1571 59.6887 41.8471C59.4487 42.4771 59.3887 43.1672 59.3287 43.8772C59.3187 44.0072 59.3187 44.1272 59.3687 44.1972C59.3987 44.2372 59.4587 44.2772 59.5287 44.2972C59.5687 44.3072 59.6187 44.3172 59.6687 44.3172C60.0287 44.3172 60.3787 43.9572 60.5487 43.7372C61.0087 43.1672 61.2887 42.6271 61.3887 42.0871C61.5087 41.4471 61.3587 40.8171 60.9887 40.3971C60.9787 40.3871 60.9687 40.3772 60.9687 40.3772Z" fill="#D5D6D6"/>
<path d="M59.0187 40.6372C58.1587 41.3872 57.9288 42.6172 57.8288 43.7472C57.7788 44.3072 57.7387 44.8672 57.7188 45.4272C58.2487 45.5772 58.8287 45.2771 59.1587 44.8271C59.4887 44.3871 59.6187 43.8272 59.7087 43.2772C59.8587 42.3972 59.9087 41.4272 59.4087 40.6872C59.3587 40.6072 59.2788 40.5272 59.1888 40.5272C59.1288 40.5472 59.0687 40.5872 59.0187 40.6372Z" fill="white"/>
<path d="M57.9987 45.6572C57.8887 45.6572 57.7787 45.6472 57.6687 45.6172L57.5287 45.5771V45.4372C57.5487 44.8772 57.5787 44.3072 57.6387 43.7472C57.7487 42.5972 57.9787 41.3072 58.8987 40.5072C58.9787 40.4372 59.0687 40.3772 59.1987 40.3672C59.4087 40.3672 59.5287 40.5472 59.5687 40.6072C60.1287 41.4272 60.0387 42.4971 59.8987 43.3271C59.7987 43.8871 59.6687 44.4772 59.3087 44.9572C58.9787 45.3772 58.4787 45.6572 57.9987 45.6572ZM57.9087 45.2872C58.2987 45.3272 58.7387 45.0972 59.0187 44.7272C59.3287 44.3172 59.4487 43.7772 59.5387 43.2572C59.6687 42.4872 59.7587 41.5172 59.2687 40.8072C59.2187 40.7372 59.1987 40.7272 59.1987 40.7272C59.1987 40.7272 59.1887 40.7372 59.1387 40.7772C58.3187 41.4872 58.1087 42.6872 58.0087 43.7672C57.9587 44.2672 57.9287 44.7772 57.9087 45.2872Z" fill="#D5D6D6"/>
<path d="M57.7086 40.6472C57.6486 40.6672 57.5986 40.7172 57.5686 40.7672C56.3086 42.4572 56.1686 44.0172 55.9886 46.0272C57.6286 45.8572 57.8986 45.3172 58.1786 43.7172C58.3386 42.7872 58.2786 41.8072 57.9886 40.9072C57.9486 40.7772 57.8386 40.6072 57.7086 40.6472Z" fill="white"/>
<path d="M55.7787 46.2272L55.7987 46.0072C55.9787 43.9872 56.1087 42.3972 57.4087 40.6572C57.4487 40.6072 57.5287 40.4972 57.6487 40.4672C57.6787 40.4572 57.7087 40.4572 57.7387 40.4572C57.9187 40.4572 58.0787 40.6072 58.1587 40.8572C58.4587 41.7772 58.5187 42.7772 58.3487 43.7572C58.0687 45.3572 57.7787 46.0272 55.9987 46.2172L55.7787 46.2272ZM57.7387 40.8372C57.7287 40.8472 57.7187 40.8572 57.6987 40.8772C56.5087 42.4772 56.3387 43.9672 56.1787 45.8172C57.5387 45.6372 57.7387 45.1172 57.9887 43.6872C58.1487 42.7772 58.0887 41.8272 57.8087 40.9672C57.7887 40.8972 57.7587 40.8572 57.7387 40.8372Z" fill="#D5D6D6"/>
<path d="M55.8286 40.5572C55.4786 40.3572 55.0386 40.4172 54.6086 40.9472C53.9686 41.7372 54.2486 42.8672 54.1386 43.7972C54.0286 44.6872 53.8986 45.3671 54.0886 46.2671C55.7586 46.4871 56.5186 45.3971 56.7786 43.8271C56.9386 42.7871 56.8886 41.1572 55.8286 40.5572Z" fill="white"/>
<path d="M54.5087 46.4872C54.3687 46.4872 54.2187 46.4772 54.0687 46.4572L53.9387 46.4372L53.9087 46.3072C53.7387 45.4672 53.8287 44.8072 53.9287 44.0372L53.9587 43.7772C53.9887 43.5072 53.9887 43.2272 53.9887 42.9172C53.9887 42.1872 53.9787 41.4372 54.4687 40.8372C54.8487 40.3672 55.2087 40.2672 55.4487 40.2672C55.6087 40.2672 55.7687 40.3072 55.9187 40.3972C56.9987 40.9972 57.1587 42.5772 56.9487 43.8572C56.5987 46.0272 55.4287 46.4872 54.5087 46.4872ZM54.2387 46.1072C54.3287 46.1172 54.4187 46.1172 54.4987 46.1172C55.6387 46.1172 56.3387 45.3372 56.5887 43.8072C56.7687 42.7072 56.6487 41.2372 55.7387 40.7272C55.4287 40.5472 55.0787 40.6771 54.7487 41.0771C54.3387 41.5771 54.3487 42.2272 54.3487 42.9272C54.3487 43.2272 54.3487 43.5372 54.3187 43.8372L54.2887 44.0972C54.1887 44.8072 54.1187 45.3872 54.2387 46.1072Z" fill="#D5D6D6"/>
<path d="M53.3986 40.3772C53.2586 40.1172 53.0686 39.8772 52.7986 39.7572C52.3886 39.5772 51.8786 39.7372 51.5586 40.0472C51.2386 40.3672 51.0686 40.7972 50.9586 41.2372C50.6986 42.2572 50.6986 43.3272 50.7086 44.3772C50.7086 45.0872 50.7186 45.7872 50.7186 46.4972C50.7186 46.5772 50.7186 46.6572 50.7686 46.7172C50.8286 46.7972 50.9386 46.8272 51.0386 46.8372C51.7886 46.9272 52.5686 46.7772 53.2286 46.4072C53.4186 46.3072 53.5986 46.1772 53.6886 45.9772C53.7586 45.8372 53.7586 45.6772 53.7686 45.5272C53.7986 44.9272 53.8186 44.3272 53.8486 43.7272C53.8786 43.1072 53.8986 42.4872 53.8286 41.8772C53.7786 41.3572 53.6586 40.8372 53.3986 40.3772Z" fill="white"/>
<path d="M51.4686 47.0472C51.3186 47.0472 51.1686 47.0372 51.0286 47.0172C50.9386 47.0072 50.7386 46.9872 50.6286 46.8172C50.5486 46.7072 50.5486 46.5772 50.5486 46.4972L50.5386 44.3772C50.5286 43.3272 50.5286 42.2372 50.7986 41.1872C50.8886 40.8272 51.0586 40.2972 51.4486 39.9072C51.7186 39.6372 52.0886 39.4872 52.4386 39.4872C52.5986 39.4872 52.7486 39.5171 52.8886 39.5771C53.1586 39.6971 53.3786 39.9272 53.5786 40.2772C53.8186 40.7172 53.9686 41.2272 54.0386 41.8472C54.1086 42.4772 54.0786 43.1172 54.0586 43.7272L53.9786 45.5272C53.9686 45.6872 53.9686 45.8772 53.8786 46.0472C53.7586 46.2972 53.5286 46.4472 53.3386 46.5572C52.7586 46.8872 52.1186 47.0472 51.4686 47.0472ZM52.4286 39.8572C52.1686 39.8572 51.8986 39.9772 51.6886 40.1772C51.4386 40.4172 51.2686 40.7672 51.1386 41.2872C50.8786 42.2872 50.8886 43.3572 50.8986 44.3872L50.9086 46.5072C50.9086 46.5372 50.9086 46.6072 50.9186 46.6272C50.9286 46.6372 50.9486 46.6572 51.0586 46.6672C51.1886 46.6872 51.3286 46.6872 51.4586 46.6872C52.0486 46.6872 52.6286 46.5372 53.1386 46.2572C53.2786 46.1772 53.4486 46.0672 53.5286 45.9172C53.5786 45.8072 53.5886 45.6672 53.5886 45.5372L53.6686 43.7372C53.6986 43.1372 53.7186 42.5172 53.6586 41.9072C53.5986 41.3372 53.4586 40.8672 53.2486 40.4772C53.0986 40.1972 52.9286 40.0172 52.7286 39.9372C52.6386 39.8772 52.5386 39.8572 52.4286 39.8572Z" fill="#D5D6D6"/>
<path d="M45.8487 40.4972C45.8087 40.5372 45.7687 40.5772 45.7387 40.6172C45.3287 41.1072 45.1287 41.7372 44.9987 42.3572C44.8587 43.0772 44.8087 43.8172 44.7587 44.5472C44.6987 45.4472 44.3487 46.7972 45.2887 47.3172C46.0587 47.7372 47.5787 47.4672 48.3687 47.3672C49.8687 47.1572 50.4387 47.3871 50.5387 45.7671C50.5987 44.8071 50.6187 43.7171 50.4187 42.7671C50.2087 41.7571 49.7587 40.4372 48.7287 39.9872C47.7887 39.5672 46.5787 39.7672 45.8487 40.4972Z" fill="white"/>
<path d="M46.5087 47.7272C45.9387 47.7272 45.5087 47.6472 45.1987 47.4772C44.2987 46.9872 44.4287 45.8872 44.5187 45.0072C44.5387 44.8372 44.5587 44.6772 44.5687 44.5372C44.6187 43.8072 44.6687 43.0571 44.8187 42.3271C44.9787 41.5171 45.2287 40.9372 45.5987 40.5072C45.6387 40.4672 45.6787 40.4172 45.7187 40.3772C46.2087 39.8772 46.9287 39.5872 47.6787 39.5872C48.0687 39.5872 48.4687 39.6672 48.8087 39.8172C49.6687 40.1972 50.2787 41.1772 50.5987 42.7272C50.8087 43.7372 50.7787 44.8872 50.7187 45.7672C50.6187 47.2972 50.0387 47.3572 48.9987 47.4672C48.8187 47.4872 48.6187 47.5072 48.3887 47.5372L48.1787 47.5672C47.7287 47.6472 47.0987 47.7272 46.5087 47.7272ZM47.6887 39.9472C47.0287 39.9472 46.4087 40.1972 45.9787 40.6272C45.9387 40.6672 45.9087 40.6972 45.8787 40.7372C45.5487 41.1272 45.3287 41.6472 45.1787 42.3972C45.0387 43.1072 44.9887 43.8472 44.9387 44.5672C44.9287 44.7172 44.9087 44.8872 44.8887 45.0572C44.7987 45.8672 44.6987 46.7972 45.3787 47.1672C45.6287 47.3072 46.0087 47.3772 46.5087 47.3772C47.0687 47.3772 47.6887 47.2872 48.1287 47.2272L48.3387 47.1972C48.5687 47.1672 48.7687 47.1472 48.9587 47.1272C49.9987 47.0172 50.2787 46.9872 50.3587 45.7672C50.4087 44.9072 50.4487 43.7872 50.2487 42.8172C49.9487 41.3872 49.4187 40.4972 48.6687 40.1672C48.3687 40.0172 48.0287 39.9472 47.6887 39.9472Z" fill="#D5D6D6"/>
<path d="M58.5987 38.0272C51.9887 35.1072 46.0687 36.4072 44.4687 36.8572C42.8687 36.4072 36.9487 35.1072 30.3387 38.0272C24.3687 40.6672 23.0587 41.5972 22.7787 41.8872C23.7487 42.0772 24.6887 42.1972 25.6387 42.1672C25.5887 42.0872 25.5387 42.0072 25.4887 41.9172C36.2787 39.7872 52.3087 39.7272 63.4287 41.9172C63.3887 41.9872 63.3487 42.0572 63.3087 42.1272C64.2387 42.1572 65.2887 42.2572 66.1887 42.0972C66.2187 42.0272 66.2287 41.9972 66.2287 41.9972C66.2287 41.9972 66.3587 41.4572 58.5987 38.0272Z" fill="#EA566D"/>
<path d="M63.3187 42.1272C58.7487 49.8272 47.5587 50.6572 44.4687 50.7272C41.3887 50.6472 30.2287 49.8272 25.6487 42.1672C24.6887 42.1872 23.7487 42.0772 22.7887 41.8872C22.7087 41.9772 22.7087 42.0072 22.7087 42.0072C22.7087 42.0072 26.0587 50.5072 30.3487 53.2472C34.7987 56.0972 36.3487 57.2872 44.4787 57.0372C52.5987 57.2872 54.1587 56.0972 58.6087 53.2472C62.6187 50.6872 65.8087 43.0872 66.2087 42.1172C65.2987 42.2572 64.2487 42.1572 63.3187 42.1272Z" fill="#EE778A"/>
<path d="M43.7588 52.1072C43.8388 52.1172 43.9188 52.1172 43.9988 52.1272C44.2788 52.1572 44.5988 52.2272 44.7188 52.4872C45.3088 53.7272 41.1188 53.8871 40.5288 53.8271C37.9288 53.5671 35.5588 53.1272 33.2188 51.8472C32.0088 51.1872 30.8888 50.3572 29.9088 49.3972C28.8188 48.3172 28.1388 47.0072 27.1288 45.8672C30.7288 49.9172 36.4388 51.9472 41.7588 52.0872C42.4288 52.1072 43.0988 52.0672 43.7588 52.1072Z" fill="#F3A0B0"/>
<path d="M38.8787 38.0472C37.3087 38.0572 35.7487 38.1772 34.1987 38.5572C33.1087 38.8172 30.9387 38.9372 30.0687 39.6672C32.6187 37.5272 35.5087 37.1072 38.7487 37.0472C39.1487 37.0372 39.5587 37.0271 39.9587 37.0771C40.8787 37.1771 41.7587 37.5772 42.4387 38.1872C41.2487 38.1072 40.0687 38.0472 38.8787 38.0472Z" fill="#F3A0B0"/>
<path d="M71.4309 133.797C80.8497 119.057 76.5364 99.4731 61.7969 90.0543C47.0573 80.6354 27.4731 84.9487 18.0543 99.6883C8.63547 114.428 12.9487 134.012 27.6883 143.431C42.4278 152.85 62.0121 148.536 71.4309 133.797Z" fill="#AF191A"/>
<path d="M21.3334 95.316C16.1734 100.946 13.0334 108.456 13.0334 116.696C13.0334 134.186 27.2134 148.366 44.7034 148.366C52.9434 148.366 60.4434 145.216 66.0834 140.066L21.3334 95.316Z" fill="#D96066"/>
<path d="M66.4668 130.55C74.0938 118.539 70.5405 102.62 58.5302 94.993C46.5199 87.366 30.6006 90.9194 22.9736 102.93C15.3466 114.94 18.9 130.859 30.9103 138.486C42.9206 146.113 58.8398 142.56 66.4668 130.55Z" fill="white"/>
<path opacity="0.7" d="M57.5034 117.326C58.7334 115.726 60.6134 112.306 60.6134 106.286C60.6134 97.3061 53.5634 96.986 50.6734 97.946C47.7834 98.906 45.5434 98.9061 45.5434 98.9061C45.5434 98.9061 43.3034 98.906 40.4134 97.946C37.5234 96.986 30.4734 97.3061 30.4734 106.286C30.4734 115.266 34.6434 118.466 34.6434 118.466C34.6434 118.466 37.3334 118.306 39.8934 118.256L34.3434 118.646C33.2134 118.726 32.3634 119.706 32.4434 120.836V120.876C32.5234 122.006 33.5034 122.866 34.6234 122.786L39.4734 122.446L39.7834 124.136L35.3134 124.446C34.2834 124.516 33.5134 125.416 33.5834 126.446V126.486C33.6534 127.516 34.5434 128.296 35.5734 128.226L40.4634 127.886L40.7134 129.266L37.6534 129.476C36.8634 129.526 36.2834 130.416 36.3534 131.446V131.486C36.4234 132.516 37.1234 133.316 37.9134 133.256L41.3934 133.016L42.3734 138.346C42.6534 139.856 43.9634 140.956 45.5034 140.956H45.5334H45.5634C47.0934 140.956 48.4134 139.856 48.6934 138.346L49.7734 132.436L53.4134 132.186C54.2034 132.136 54.7834 131.246 54.7134 130.216V130.176C54.6434 129.146 53.9434 128.346 53.1534 128.406L50.4834 128.596L50.7434 127.186L55.7734 126.836C56.8034 126.766 57.5734 125.866 57.5034 124.836V124.796C57.4334 123.766 56.5434 122.986 55.5134 123.056L51.4534 123.336L51.7734 121.606L56.7534 121.256C57.8834 121.176 58.7334 120.196 58.6534 119.066V119.026C58.5934 118.266 58.1334 117.636 57.5034 117.326Z" fill="#808181"/>
<path d="M44.9133 140.326H44.9433C46.4733 140.326 47.7933 139.226 48.0733 137.716L49.1533 131.806L44.9133 132.096V140.326Z" fill="#454544"/>
<path d="M40.7834 132.386L41.7634 137.716C42.0434 139.226 43.3534 140.326 44.8934 140.326H44.9234V132.106L40.7834 132.386Z" fill="#525252"/>
<path d="M44.9134 126.906L39.8434 127.256L40.0934 128.636L44.9134 128.296V126.906Z" fill="#525252"/>
<path d="M44.9134 121.396L38.8434 121.816L39.1534 123.506L44.9134 123.106V121.396Z" fill="#525252"/>
<path d="M44.9133 128.296L49.8533 127.956L50.1133 126.546L44.9133 126.906V128.296Z" fill="#454544"/>
<path d="M44.9133 123.106L50.8133 122.696L51.1333 120.966L44.9133 121.396V123.106Z" fill="#454544"/>
<path d="M44.9134 98.266C44.9134 98.266 42.6734 98.266 39.7834 97.306C36.8934 96.346 29.8434 96.6661 29.8434 105.646C29.8434 114.626 34.0134 117.826 34.0134 117.826C34.0134 117.826 36.7034 117.666 39.2634 117.616L44.9134 117.226V98.266Z" fill="url(#paint0_linear_159_5)"/>
<path d="M55.8233 116.476C56.1933 116.446 56.5533 116.536 56.8633 116.696C58.1033 115.096 59.9733 111.676 59.9733 105.656C59.9733 96.6761 52.9233 96.356 50.0333 97.316C47.1433 98.276 44.9033 98.2761 44.9033 98.2761V117.236L55.8233 116.476Z" fill="#EFEEEE"/>
<path d="M39.2534 117.626L33.7034 118.006C32.5734 118.086 31.7234 119.066 31.8034 120.196V120.236C31.8834 121.366 32.8634 122.226 33.9834 122.146L38.8334 121.806L44.9034 121.386V119.306V117.826V117.226L39.2534 117.626Z" fill="#10456A"/>
<path d="M58.0133 118.386C57.9633 117.626 57.5033 117.006 56.8733 116.696C56.5633 116.536 56.2033 116.456 55.8333 116.476L44.9133 117.236V117.836V119.316V121.396L51.1333 120.966L56.1133 120.616C57.2433 120.536 58.0933 119.556 58.0133 118.426V118.386Z" fill="#0F283D"/>
<path d="M39.1534 123.506L34.6834 123.816C33.6534 123.886 32.8834 124.786 32.9534 125.816V125.856C33.0234 126.886 33.9134 127.666 34.9434 127.596L39.8334 127.256L44.9034 126.906V123.106L39.1534 123.506Z" fill="#10456A"/>
<path d="M56.8633 124.156C56.7933 123.126 55.9033 122.346 54.8733 122.416L50.8133 122.696L44.9033 123.106V126.906L50.1033 126.546L55.1333 126.196C56.1633 126.126 56.9333 125.226 56.8633 124.196V124.156Z" fill="#0F283D"/>
<path d="M54.0833 129.546C54.0133 128.516 53.3133 127.716 52.5233 127.776L49.8533 127.966L44.9133 128.306V132.106L49.1533 131.816L52.7933 131.566C53.5833 131.516 54.1633 130.626 54.0933 129.596L54.0833 129.546Z" fill="#0F283D"/>
<path d="M40.0934 128.636L37.0334 128.846C36.2434 128.896 35.6634 129.786 35.7334 130.816V130.856C35.8034 131.886 36.5034 132.686 37.2934 132.626L40.7734 132.386L44.9034 132.096V128.296L40.0934 128.636Z" fill="#10456A"/>
<path d="M34.9934 119.696C34.9934 120.016 34.7334 120.276 34.4134 120.276C34.0934 120.276 33.8334 120.016 33.8334 119.696C33.8334 119.376 34.0934 119.116 34.4134 119.116C34.7334 119.116 34.9934 119.376 34.9934 119.696Z" fill="white"/>
<path d="M36.3034 124.776C36.3034 125.096 36.0434 125.356 35.7234 125.356C35.4034 125.356 35.1434 125.096 35.1434 124.776C35.1434 124.456 35.4034 124.196 35.7234 124.196C36.0434 124.196 36.3034 124.456 36.3034 124.776Z" fill="white"/>
<path d="M37.6134 129.856C37.6134 130.176 37.3534 130.436 37.0334 130.436C36.7134 130.436 36.4534 130.176 36.4534 129.856C36.4534 129.536 36.7134 129.276 37.0334 129.276C37.3534 129.276 37.6134 129.536 37.6134 129.856Z" fill="white"/>
<path d="M37.6134 100.876C37.6134 100.876 35.6634 99.046 34.4134 100.206C33.1634 101.366 33.1634 106.556 33.8334 107.906C34.5034 109.256 35.0334 108.966 36.4534 108.386C37.8734 107.806 38.9134 108.376 38.3434 107.076C37.7734 105.786 38.2434 103.856 38.3434 102.796C38.4634 101.746 37.6134 100.876 37.6134 100.876Z" fill="white"/>
<path d="M71.4309 202.797C80.8498 188.057 76.5365 168.473 61.7969 159.054C47.0574 149.635 27.4731 153.949 18.0543 168.688C8.63547 183.428 12.9488 203.012 27.6883 212.431C42.4279 221.85 62.0121 217.536 71.4309 202.797Z" fill="#AF191A"/>
<path d="M21.328 164.304C16.168 169.934 13.028 177.444 13.028 185.684C13.028 203.174 27.208 217.354 44.698 217.354C52.938 217.354 60.438 214.204 66.0779 209.054L21.328 164.304Z" fill="#D96066"/>
<path d="M66.4651 199.549C74.0921 187.539 70.5388 171.62 58.5285 163.993C46.5181 156.366 30.5989 159.919 22.9719 171.929C15.3449 183.94 18.8983 199.859 30.9086 207.486C42.9189 215.113 58.8381 211.559 66.4651 199.549Z" fill="white"/>
<path opacity="0.7" d="M63.4079 170.024H52.3679L51.0579 167.014L44.1779 170.024H36.2979V173.464L26.2079 177.864L32.3479 191.934C32.2679 192.374 32.2179 192.834 32.2179 193.294C32.2179 194.644 32.5879 195.934 33.2579 197.064L29.9379 200.384L32.5079 202.954L35.7379 199.724L37.4179 203.564L50.0079 198.064H63.3879V170.024H63.4079Z" fill="#808181"/>
<path d="M49.8189 168.547L27.8345 178.148L37.8115 200.994L59.7959 191.393L49.8189 168.547Z" fill="#EA566D"/>
<path d="M36.9679 203.094L25.7479 177.394L50.5879 166.544L61.8079 192.244L36.9679 203.094ZM29.8479 179.004L38.5779 198.994L57.7079 190.644L48.9779 170.654L29.8479 179.004Z" fill="white"/>
<path d="M61.3779 171.104H37.3879V196.034H61.3779V171.104Z" fill="#EE778A"/>
<path d="M62.9379 197.594H35.8279V169.554H62.9379V197.594ZM38.9479 194.474H59.8279V172.664H38.9479V194.474Z" fill="#7BC8C7"/>
<path d="M49.3779 177.504C49.3779 177.504 48.6479 177.504 47.7179 177.194C46.7879 176.884 44.4979 176.984 44.4979 179.894C44.4979 182.804 45.8479 183.844 45.8479 183.844C45.8479 183.844 45.9479 185.504 46.9379 187.064C47.9279 188.624 48.3379 189.554 48.4479 187.684C48.5479 185.814 48.7479 183.274 48.9679 182.904C49.3879 182.184 49.3879 182.184 49.3879 182.184V177.504H49.3779Z" fill="white"/>
<path d="M49.3779 177.504C49.3779 177.504 50.1079 177.504 51.0379 177.194C51.9679 176.884 54.2579 176.984 54.2579 179.894C54.2579 182.804 52.9079 183.844 52.9079 183.844C52.9079 183.844 52.8079 185.504 51.8179 187.064C50.8279 188.624 50.4179 189.554 50.3079 187.684C50.2079 185.814 50.0079 183.274 49.7879 182.904C49.3679 182.184 49.3679 182.184 49.3679 182.184V177.504H49.3779Z" fill="white"/>
<path d="M43.4879 197.164C41.0879 199.564 37.1979 199.564 34.7979 197.164C32.3979 194.764 32.3979 190.874 34.7979 188.474C37.1979 186.074 41.0879 186.074 43.4879 188.474C45.8879 190.874 45.8879 194.764 43.4879 197.164Z" fill="#E8E7E7"/>
<path d="M39.1479 200.214C37.1779 200.214 35.3179 199.444 33.9179 198.054C32.5179 196.654 31.7579 194.804 31.7579 192.824C31.7579 190.844 32.5279 188.994 33.9179 187.594C35.3179 186.194 37.1679 185.434 39.1479 185.434C41.1179 185.434 42.9779 186.204 44.3779 187.594C47.2579 190.474 47.2579 195.164 44.3779 198.044C42.9779 199.444 41.1179 200.214 39.1479 200.214ZM39.1479 187.924C37.8379 187.924 36.6079 188.434 35.6879 189.354C33.7779 191.264 33.7779 194.374 35.6879 196.284C36.6179 197.214 37.8479 197.714 39.1479 197.714C40.4579 197.714 41.6879 197.204 42.6079 196.284C44.5179 194.374 44.5179 191.264 42.6079 189.354C41.6879 188.434 40.4579 187.924 39.1479 187.924Z" fill="#0F283D"/>
<path d="M33.8446 195.539L29.4889 199.895L32.0627 202.469L36.4184 198.113L33.8446 195.539Z" fill="#0F283D"/>
<path d="M35.498 193.384C35.498 193.384 35.448 193.284 35.388 193.124C35.358 193.044 35.318 192.944 35.308 192.814C35.288 192.684 35.258 192.534 35.268 192.384C35.268 192.224 35.278 192.054 35.318 191.874C35.338 191.694 35.408 191.514 35.478 191.324C35.558 191.144 35.648 190.954 35.768 190.774C35.878 190.594 36.028 190.434 36.168 190.274C36.328 190.134 36.488 189.984 36.668 189.874C36.838 189.744 37.038 189.664 37.218 189.584C37.408 189.524 37.588 189.454 37.768 189.424C37.948 189.384 38.118 189.374 38.278 189.374C38.438 189.364 38.578 189.394 38.698 189.414C38.818 189.424 38.928 189.464 39.018 189.494C39.188 189.554 39.278 189.604 39.278 189.604C39.278 189.604 39.188 189.664 39.028 189.744C38.878 189.824 38.668 189.934 38.448 190.074C38.338 190.134 38.218 190.214 38.098 190.294C37.978 190.364 37.868 190.464 37.738 190.544C37.628 190.644 37.498 190.734 37.388 190.834C37.268 190.934 37.158 191.044 37.048 191.144C36.948 191.254 36.828 191.364 36.738 191.484C36.628 191.594 36.548 191.724 36.448 191.834C36.368 191.954 36.268 192.074 36.198 192.194C36.118 192.314 36.038 192.424 35.978 192.544C35.838 192.774 35.728 192.954 35.648 193.124C35.558 193.294 35.498 193.384 35.498 193.384Z" fill="white"/>
<defs>
<linearGradient id="paint0_linear_159_5" x1="29.8408" y1="107.383" x2="44.9102" y2="107.383" gradientUnits="userSpaceOnUse">
<stop stop-color="#EBF3FC"/>
<stop offset="1" stop-color="white"/>
</linearGradient>
</defs>
</svg>
