<svg width="233" height="197" viewBox="0 0 233 197" fill="none" xmlns="http://www.w3.org/2000/svg">
<path opacity="0.4" d="M223.75 58.4099L2.43994 54.9999L4.65994 0.519897L223.76 3.47986C226.51 3.47986 228.74 5.58987 228.74 8.17987V53.6999C228.74 56.3099 226.51 58.4099 223.75 58.4099Z" fill="url(#paint0_linear_155_486)"/>
<path d="M227.56 48.7699H213.63C210.85 48.7699 208.6 46.5199 208.6 43.7399V11.3199C208.6 8.53989 210.85 6.28986 213.63 6.28986H227.56C230.34 6.28986 232.59 8.53989 232.59 11.3199V43.7399C232.59 46.5199 230.34 48.7699 227.56 48.7699Z" fill="#AF191A"/>
<path d="M217.19 54.9999H0V0.0698853H217.19C221 0.0698853 224.08 3.1599 224.08 6.9599V48.1099C224.08 51.9099 220.99 54.9999 217.19 54.9999Z" fill="white"/>
<path d="M3.60999 51.5799V3.47986H218.57C219.61 3.47986 220.46 4.32987 220.46 5.36987V49.6899C220.46 50.7299 219.61 51.5799 218.57 51.5799H3.60999Z" fill="url(#paint1_linear_155_486)"/>
<path d="M43.6488 34.7897C42.4423 34.7897 41.3837 34.5026 40.473 33.9283C39.5682 33.3541 38.8605 32.5507 38.3501 31.5182C37.8454 30.4858 37.5931 29.2793 37.5931 27.8988C37.5931 26.5066 37.8454 25.2914 38.3501 24.2532C38.8605 23.2149 39.5682 22.4086 40.473 21.8344C41.3837 21.2601 42.4423 20.973 43.6488 20.973C44.8553 20.973 45.911 21.2601 46.8159 21.8344C47.7265 22.4086 48.4342 23.2149 48.9388 24.2532C49.4493 25.2914 49.7045 26.5066 49.7045 27.8988C49.7045 29.2793 49.4493 30.4858 48.9388 31.5182C48.4342 32.5507 47.7265 33.3541 46.8159 33.9283C45.911 34.5026 44.8553 34.7897 43.6488 34.7897ZM43.6488 32.9452C44.5653 32.9452 45.3193 32.7102 45.911 32.2404C46.5026 31.7706 46.9406 31.1528 47.2248 30.3872C47.509 29.6215 47.6511 28.792 47.6511 27.8988C47.6511 27.0055 47.509 26.1731 47.2248 25.4016C46.9406 24.6302 46.5026 24.0066 45.911 23.531C45.3193 23.0554 44.5653 22.8175 43.6488 22.8175C42.7323 22.8175 41.9783 23.0554 41.3866 23.531C40.795 24.0066 40.357 24.6302 40.0728 25.4016C39.7886 26.1731 39.6465 27.0055 39.6465 27.8988C39.6465 28.792 39.7886 29.6215 40.0728 30.3872C40.357 31.1528 40.795 31.7706 41.3866 32.2404C41.9783 32.7102 42.7323 32.9452 43.6488 32.9452ZM52.8389 34.5113V21.147H54.8227V23.1656H54.9619C55.2055 22.5043 55.6464 21.9678 56.2844 21.5559C56.9225 21.1441 57.6417 20.9382 58.4422 20.9382C58.593 20.9382 58.7815 20.9411 59.0077 20.9469C59.234 20.9527 59.4051 20.9614 59.5211 20.973V23.0612C59.4515 23.0438 59.292 23.0177 59.0425 22.9828C58.7989 22.9422 58.5408 22.9219 58.2682 22.9219C57.6185 22.9219 57.0385 23.0583 56.528 23.3309C56.0234 23.5977 55.6232 23.9689 55.3273 24.4446C55.0373 24.9144 54.8923 25.451 54.8923 26.0542V34.5113H52.8389ZM68.6046 21.147V22.8871H61.6789V21.147H68.6046ZM63.6974 17.9451H65.7508V30.683C65.7508 31.263 65.8349 31.6981 66.0031 31.9881C66.1771 32.2723 66.3975 32.4637 66.6644 32.5623C66.937 32.6551 67.2241 32.7015 67.5257 32.7015C67.7519 32.7015 67.9376 32.6899 68.0826 32.6667C68.2276 32.6377 68.3436 32.6145 68.4306 32.5971L68.8482 34.4417C68.709 34.4939 68.5147 34.5461 68.2653 34.5983C68.0159 34.6563 67.6997 34.6853 67.3169 34.6853C66.7369 34.6853 66.1684 34.5606 65.6116 34.3112C65.0605 34.0618 64.6023 33.6818 64.2369 33.1714C63.8772 32.6609 63.6974 32.0171 63.6974 31.2398V17.9451ZM76.9791 34.7897C75.7726 34.7897 74.714 34.5026 73.8033 33.9283C72.8984 33.3541 72.1908 32.5507 71.6803 31.5182C71.1757 30.4858 70.9234 29.2793 70.9234 27.8988C70.9234 26.5066 71.1757 25.2914 71.6803 24.2532C72.1908 23.2149 72.8984 22.4086 73.8033 21.8344C74.714 21.2601 75.7726 20.973 76.9791 20.973C78.1856 20.973 79.2412 21.2601 80.1461 21.8344C81.0568 22.4086 81.7644 23.2149 82.2691 24.2532C82.7795 25.2914 83.0347 26.5066 83.0347 27.8988C83.0347 29.2793 82.7795 30.4858 82.2691 31.5182C81.7644 32.5507 81.0568 33.3541 80.1461 33.9283C79.2412 34.5026 78.1856 34.7897 76.9791 34.7897ZM76.9791 32.9452C77.8955 32.9452 78.6496 32.7102 79.2412 32.2404C79.8329 31.7706 80.2708 31.1528 80.555 30.3872C80.8393 29.6215 80.9814 28.792 80.9814 27.8988C80.9814 27.0055 80.8393 26.1731 80.555 25.4016C80.2708 24.6302 79.8329 24.0066 79.2412 23.531C78.6496 23.0554 77.8955 22.8175 76.9791 22.8175C76.0626 22.8175 75.3085 23.0554 74.7169 23.531C74.1252 24.0066 73.6873 24.6302 73.4031 25.4016C73.1188 26.1731 72.9767 27.0055 72.9767 27.8988C72.9767 28.792 73.1188 29.6215 73.4031 30.3872C73.6873 31.1528 74.1252 31.7706 74.7169 32.2404C75.3085 32.7102 76.0626 32.9452 76.9791 32.9452ZM91.2156 34.7897C90.1019 34.7897 89.1187 34.5084 88.2661 33.9457C87.4134 33.3773 86.7463 32.5768 86.2649 31.5443C85.7834 30.5061 85.5427 29.2793 85.5427 27.8639C85.5427 26.4602 85.7834 25.2421 86.2649 24.2097C86.7463 23.1772 87.4163 22.3796 88.2748 21.817C89.1332 21.2543 90.1251 20.973 91.2504 20.973C92.1205 20.973 92.8078 21.118 93.3125 21.408C93.8229 21.6922 94.2115 22.0171 94.4784 22.3825C94.751 22.7421 94.9627 23.038 95.1135 23.27H95.2875V16.6922H97.3409V34.5113H95.3571V32.4579H95.1135C94.9627 32.7015 94.7481 33.009 94.4697 33.3802C94.1912 33.7456 93.7939 34.0734 93.2777 34.3634C92.7614 34.6476 92.0741 34.7897 91.2156 34.7897ZM91.494 32.9452C92.3177 32.9452 93.0137 32.7305 93.5822 32.3013C94.1506 31.8663 94.5828 31.2659 94.8786 30.5003C95.1744 29.7288 95.3223 28.8384 95.3223 27.8291C95.3223 26.8315 95.1773 25.9585 94.8873 25.2102C94.5973 24.4562 94.168 23.8703 93.5996 23.4527C93.0311 23.0293 92.3293 22.8175 91.494 22.8175C90.6239 22.8175 89.8989 23.0409 89.3188 23.4875C88.7446 23.9283 88.3125 24.5287 88.0224 25.2885C87.7382 26.0426 87.5961 26.8895 87.5961 27.8291C87.5961 28.7804 87.7411 29.6447 88.0311 30.422C88.327 31.1934 88.762 31.8083 89.3362 32.2665C89.9163 32.7189 90.6355 32.9452 91.494 32.9452ZM106.816 34.7897C105.609 34.7897 104.551 34.5026 103.64 33.9283C102.735 33.3541 102.028 32.5507 101.517 31.5182C101.013 30.4858 100.76 29.2793 100.76 27.8988C100.76 26.5066 101.013 25.2914 101.517 24.2532C102.028 23.2149 102.735 22.4086 103.64 21.8344C104.551 21.2601 105.609 20.973 106.816 20.973C108.022 20.973 109.078 21.2601 109.983 21.8344C110.894 22.4086 111.601 23.2149 112.106 24.2532C112.616 25.2914 112.872 26.5066 112.872 27.8988C112.872 29.2793 112.616 30.4858 112.106 31.5182C111.601 32.5507 110.894 33.3541 109.983 33.9283C109.078 34.5026 108.022 34.7897 106.816 34.7897ZM106.816 32.9452C107.732 32.9452 108.486 32.7102 109.078 32.2404C109.67 31.7706 110.108 31.1528 110.392 30.3872C110.676 29.6215 110.818 28.792 110.818 27.8988C110.818 27.0055 110.676 26.1731 110.392 25.4016C110.108 24.6302 109.67 24.0066 109.078 23.531C108.486 23.0554 107.732 22.8175 106.816 22.8175C105.899 22.8175 105.145 23.0554 104.554 23.531C103.962 24.0066 103.524 24.6302 103.24 25.4016C102.956 26.1731 102.814 27.0055 102.814 27.8988C102.814 28.792 102.956 29.6215 103.24 30.3872C103.524 31.1528 103.962 31.7706 104.554 32.2404C105.145 32.7102 105.899 32.9452 106.816 32.9452ZM118.059 26.4718V34.5113H116.006V21.147H117.99V23.2352H118.164C118.477 22.5565 118.953 22.0113 119.591 21.5994C120.229 21.1818 121.052 20.973 122.062 20.973C122.967 20.973 123.758 21.1586 124.437 21.5298C125.116 21.8953 125.644 22.4521 126.021 23.2004C126.398 23.9428 126.586 24.8825 126.586 26.0194V34.5113H124.533V26.1586C124.533 25.1087 124.26 24.2909 123.715 23.705C123.17 23.1134 122.421 22.8175 121.47 22.8175C120.815 22.8175 120.229 22.9596 119.713 23.2439C119.202 23.5281 118.799 23.9428 118.503 24.4881C118.207 25.0333 118.059 25.6946 118.059 26.4718ZM136.15 21.147V22.8871H129.225V21.147H136.15ZM131.243 17.9451H133.297V30.683C133.297 31.263 133.381 31.6981 133.549 31.9881C133.723 32.2723 133.943 32.4637 134.21 32.5623C134.483 32.6551 134.77 32.7015 135.072 32.7015C135.298 32.7015 135.483 32.6899 135.628 32.6667C135.773 32.6377 135.889 32.6145 135.976 32.5971L136.394 34.4417C136.255 34.4939 136.06 34.5461 135.811 34.5983C135.562 34.6563 135.246 34.6853 134.863 34.6853C134.283 34.6853 133.714 34.5606 133.157 34.3112C132.606 34.0618 132.148 33.6818 131.783 33.1714C131.423 32.6609 131.243 32.0171 131.243 31.2398V17.9451ZM139.239 34.5113V21.147H141.293V34.5113H139.239ZM140.283 18.9196C139.883 18.9196 139.538 18.7833 139.248 18.5107C138.964 18.2381 138.822 17.9103 138.822 17.5275C138.822 17.1447 138.964 16.8169 139.248 16.5443C139.538 16.2717 139.883 16.1354 140.283 16.1354C140.683 16.1354 141.026 16.2717 141.31 16.5443C141.6 16.8169 141.745 17.1447 141.745 17.5275C141.745 17.9103 141.6 18.2381 141.31 18.5107C141.026 18.7833 140.683 18.9196 140.283 18.9196ZM148.986 34.8245C148.139 34.8245 147.371 34.665 146.68 34.346C145.99 34.0212 145.442 33.5542 145.036 32.9452C144.63 32.3303 144.427 31.5879 144.427 30.7178C144.427 29.9521 144.578 29.3315 144.879 28.8558C145.181 28.3744 145.584 27.9974 146.089 27.7247C146.593 27.4521 147.15 27.2491 147.759 27.1157C148.374 26.9765 148.992 26.8663 149.613 26.7851C150.425 26.6807 151.083 26.6023 151.588 26.5501C152.098 26.4921 152.469 26.3964 152.701 26.263C152.939 26.1296 153.058 25.8976 153.058 25.567V25.4974C153.058 24.6389 152.823 23.9718 152.353 23.4962C151.889 23.0206 151.185 22.7827 150.239 22.7827C149.259 22.7827 148.49 22.9974 147.933 23.4266C147.377 23.8558 146.985 24.3141 146.759 24.8013L144.81 24.1052C145.158 23.2932 145.622 22.6609 146.202 22.2085C146.788 21.7502 147.426 21.4312 148.116 21.2514C148.812 21.0658 149.497 20.973 150.169 20.973C150.599 20.973 151.092 21.0252 151.649 21.1296C152.211 21.2282 152.754 21.4341 153.276 21.7473C153.803 22.0606 154.241 22.5333 154.589 23.1656C154.937 23.7978 155.111 24.6447 155.111 25.7062V34.5113H153.058V32.7015H152.954C152.814 32.9916 152.582 33.3019 152.258 33.6325C151.933 33.9631 151.501 34.2445 150.961 34.4765C150.422 34.7085 149.763 34.8245 148.986 34.8245ZM149.299 32.98C150.111 32.98 150.796 32.8205 151.353 32.5014C151.915 32.1824 152.339 31.7706 152.623 31.2659C152.913 30.7613 153.058 30.2305 153.058 29.6737V27.7943C152.971 27.8988 152.78 27.9945 152.484 28.0815C152.194 28.1627 151.857 28.2352 151.475 28.299C151.098 28.357 150.729 28.4092 150.37 28.4556C150.016 28.4962 149.729 28.531 149.508 28.56C148.975 28.6296 148.476 28.7427 148.012 28.8993C147.553 29.0501 147.182 29.2793 146.898 29.5867C146.62 29.8883 146.48 30.3001 146.48 30.8222C146.48 31.5356 146.744 32.0751 147.272 32.4405C147.806 32.8002 148.481 32.98 149.299 32.98Z" fill="#020203"/>
<path opacity="0.4" d="M223.75 127.69L2.43005 124.28L4.65005 69.8L223.75 72.76C226.5 72.76 228.73 74.87 228.73 77.46V122.98C228.74 125.58 226.51 127.69 223.75 127.69Z" fill="url(#paint2_linear_155_486)"/>
<path d="M227.56 118.05H213.63C210.85 118.05 208.6 115.8 208.6 113.02V80.6C208.6 77.82 210.85 75.57 213.63 75.57H227.56C230.34 75.57 232.59 77.82 232.59 80.6V113.02C232.59 115.8 230.34 118.05 227.56 118.05Z" fill="#AF191A"/>
<path d="M217.19 124.28H0V69.35H217.19C221 69.35 224.08 72.44 224.08 76.24V117.39C224.08 121.19 220.99 124.28 217.19 124.28Z" fill="white"/>
<path d="M3.60999 120.86V72.76H218.57C219.61 72.76 220.46 73.61 220.46 74.65V118.97C220.46 120.01 219.61 120.86 218.57 120.86H3.60999Z" fill="url(#paint3_linear_155_486)"/>
<path d="M54.7652 105.385V92.0203H56.8186V105.385H54.7652ZM55.8093 89.7929C55.4091 89.7929 55.0639 89.6566 54.7739 89.384C54.4897 89.1114 54.3476 88.7836 54.3476 88.4008C54.3476 88.018 54.4897 87.6902 54.7739 87.4176C55.0639 87.145 55.4091 87.0087 55.8093 87.0087C56.2095 87.0087 56.5518 87.145 56.836 87.4176C57.126 87.6902 57.271 88.018 57.271 88.4008C57.271 88.7836 57.126 89.1114 56.836 89.384C56.5518 89.6566 56.2095 89.7929 55.8093 89.7929ZM60.5795 105.385V92.0203H62.5632V94.1085H62.7372C63.0157 93.395 63.4652 92.8411 64.0859 92.4466C64.7065 92.0464 65.4519 91.8463 66.3219 91.8463C67.2036 91.8463 67.9374 92.0464 68.5232 92.4466C69.1149 92.8411 69.576 93.395 69.9066 94.1085H70.0458C70.3881 93.4182 70.9014 92.8701 71.5859 92.464C72.2703 92.0522 73.0911 91.8463 74.0482 91.8463C75.2431 91.8463 76.2204 92.2204 76.9803 92.9687C77.7402 93.7111 78.1201 94.8683 78.1201 96.4403V105.385H76.0667V96.4403C76.0667 95.4542 75.797 94.7494 75.2576 94.326C74.7181 93.9025 74.083 93.6908 73.3521 93.6908C72.4124 93.6908 71.6845 93.9751 71.1682 94.5435C70.652 95.1061 70.3939 95.8196 70.3939 96.6839V105.385H68.3057V96.2314C68.3057 95.4716 68.0592 94.8596 67.5661 94.3956C67.0731 93.9257 66.4379 93.6908 65.6607 93.6908C65.127 93.6908 64.6282 93.8329 64.1642 94.1172C63.7059 94.4014 63.3347 94.7958 63.0505 95.3005C62.772 95.7993 62.6328 96.3764 62.6328 97.0319V105.385H60.5795ZM81.8745 110.396V92.0203H83.8582V94.1433H84.1018C84.2526 93.9112 84.4615 93.6154 84.7283 93.2558C85.0009 92.8904 85.3895 92.5655 85.8942 92.2813C86.4046 91.9913 87.0949 91.8463 87.965 91.8463C89.0902 91.8463 90.0821 92.1276 90.9406 92.6902C91.7991 93.2529 92.469 94.0505 92.9505 95.0829C93.4319 96.1154 93.6726 97.3335 93.6726 98.7372C93.6726 100.153 93.4319 101.379 92.9505 102.418C92.469 103.45 91.802 104.251 90.9493 104.819C90.0966 105.382 89.1134 105.663 87.9998 105.663C87.1413 105.663 86.4539 105.521 85.9377 105.237C85.4214 104.947 85.0241 104.619 84.7457 104.253C84.4673 103.882 84.2526 103.575 84.1018 103.331H83.9278V110.396H81.8745ZM83.893 98.7024C83.893 99.7117 84.0409 100.602 84.3368 101.374C84.6326 102.139 85.0647 102.74 85.6332 103.175C86.2016 103.604 86.8977 103.818 87.7213 103.818C88.5798 103.818 89.2962 103.592 89.8704 103.14C90.4505 102.682 90.8855 102.067 91.1755 101.295C91.4713 100.518 91.6193 99.6537 91.6193 98.7024C91.6193 97.7628 91.4742 96.9159 91.1842 96.1618C90.9 95.402 90.4679 94.8016 89.8878 94.3608C89.3136 93.9141 88.5914 93.6908 87.7213 93.6908C86.8861 93.6908 86.1842 93.9025 85.6158 94.326C85.0473 94.7436 84.6181 95.3295 84.3281 96.0835C84.038 96.8318 83.893 97.7048 83.893 98.7024ZM98.8582 87.5655V105.385H96.8049V87.5655H98.8582ZM106.552 105.698C105.705 105.698 104.936 105.538 104.246 105.219C103.556 104.894 103.008 104.428 102.602 103.818C102.196 103.204 101.993 102.461 101.993 101.591C101.993 100.825 102.143 100.205 102.445 99.7291C102.747 99.2477 103.15 98.8707 103.655 98.598C104.159 98.3254 104.716 98.1224 105.325 97.989C105.94 97.8498 106.558 97.7396 107.178 97.6584C107.99 97.5539 108.649 97.4756 109.153 97.4234C109.664 97.3654 110.035 97.2697 110.267 97.1363C110.505 97.0029 110.624 96.7709 110.624 96.4403V96.3706C110.624 95.5122 110.389 94.8451 109.919 94.3695C109.455 93.8938 108.75 93.656 107.805 93.656C106.824 93.656 106.056 93.8706 105.499 94.2999C104.942 94.7291 104.551 95.1873 104.324 95.6746L102.376 94.9785C102.724 94.1665 103.188 93.5342 103.768 93.0818C104.353 92.6235 104.992 92.3045 105.682 92.1247C106.378 91.9391 107.062 91.8463 107.735 91.8463C108.164 91.8463 108.657 91.8985 109.214 92.0029C109.777 92.1015 110.319 92.3074 110.841 92.6206C111.369 92.9339 111.807 93.4066 112.155 94.0389C112.503 94.6711 112.677 95.518 112.677 96.5795V105.385H110.624V103.575H110.519C110.38 103.865 110.148 104.175 109.823 104.506C109.498 104.836 109.066 105.118 108.527 105.35C107.987 105.582 107.329 105.698 106.552 105.698ZM106.865 103.853C107.677 103.853 108.362 103.694 108.918 103.375C109.481 103.056 109.905 102.644 110.189 102.139C110.479 101.635 110.624 101.104 110.624 100.547V98.6676C110.537 98.772 110.345 98.8678 110.05 98.9548C109.76 99.036 109.423 99.1085 109.04 99.1723C108.663 99.2303 108.295 99.2825 107.935 99.3289C107.581 99.3695 107.294 99.4043 107.074 99.4333C106.54 99.5029 106.041 99.616 105.577 99.7726C105.119 99.9234 104.748 100.153 104.464 100.46C104.185 100.762 104.046 101.173 104.046 101.695C104.046 102.409 104.31 102.948 104.838 103.314C105.371 103.673 106.047 103.853 106.865 103.853ZM118.478 97.3451V105.385H116.425V92.0203H118.409V94.1085H118.583C118.896 93.4298 119.372 92.8846 120.01 92.4727C120.648 92.0551 121.471 91.8463 122.481 91.8463C123.386 91.8463 124.177 92.0319 124.856 92.4031C125.535 92.7686 126.062 93.3254 126.439 94.0737C126.817 94.8161 127.005 95.7558 127.005 96.8927V105.385H124.952V97.0319C124.952 95.982 124.679 95.1641 124.134 94.5783C123.589 93.9867 122.84 93.6908 121.889 93.6908C121.234 93.6908 120.648 93.8329 120.131 94.1172C119.621 94.4014 119.218 94.8161 118.922 95.3614C118.626 95.9066 118.478 96.5679 118.478 97.3451ZM136.569 92.0203V93.7604H129.644V92.0203H136.569ZM131.662 88.8184H133.715V101.556C133.715 102.136 133.8 102.571 133.968 102.861C134.142 103.146 134.362 103.337 134.629 103.436C134.902 103.528 135.189 103.575 135.49 103.575C135.717 103.575 135.902 103.563 136.047 103.54C136.192 103.511 136.308 103.488 136.395 103.47L136.813 105.315C136.674 105.367 136.479 105.419 136.23 105.472C135.981 105.53 135.664 105.559 135.282 105.559C134.702 105.559 134.133 105.434 133.576 105.184C133.025 104.935 132.567 104.555 132.202 104.045C131.842 103.534 131.662 102.89 131.662 102.113V88.8184ZM145.118 105.663C143.83 105.663 142.719 105.379 141.785 104.81C140.857 104.236 140.141 103.436 139.636 102.409C139.137 101.376 138.888 100.176 138.888 98.8068C138.888 97.4379 139.137 96.2314 139.636 95.1874C140.141 94.1375 140.843 93.3196 141.742 92.7337C142.647 92.1421 143.702 91.8463 144.909 91.8463C145.605 91.8463 146.292 91.9623 146.971 92.1943C147.65 92.4263 148.267 92.8034 148.824 93.3254C149.381 93.8416 149.825 94.5261 150.155 95.3788C150.486 96.2314 150.651 97.2813 150.651 98.5284V99.3985H140.35V97.6235H148.563C148.563 96.8695 148.412 96.1966 148.111 95.605C147.815 95.0133 147.392 94.5464 146.84 94.2042C146.295 93.8619 145.651 93.6908 144.909 93.6908C144.091 93.6908 143.383 93.8938 142.786 94.2999C142.194 94.7001 141.739 95.2222 141.42 95.866C141.101 96.5099 140.941 97.2001 140.941 97.9368V99.1201C140.941 100.129 141.115 100.985 141.463 101.687C141.817 102.383 142.307 102.914 142.934 103.279C143.56 103.639 144.288 103.818 145.118 103.818C145.657 103.818 146.144 103.743 146.579 103.592C147.02 103.436 147.4 103.204 147.719 102.896C148.038 102.583 148.285 102.194 148.459 101.73L150.443 102.287C150.234 102.96 149.883 103.552 149.39 104.062C148.897 104.567 148.288 104.961 147.563 105.245C146.838 105.524 146.023 105.663 145.118 105.663Z" fill="#020203"/>
<path opacity="0.4" d="M223.75 196.97L2.43005 193.56L4.65005 139.08L223.75 142.04C226.5 142.04 228.73 144.15 228.73 146.74V192.26C228.74 194.86 226.51 196.97 223.75 196.97Z" fill="url(#paint4_linear_155_486)"/>
<path d="M227.56 187.33H213.63C210.85 187.33 208.6 185.08 208.6 182.3V149.88C208.6 147.1 210.85 144.85 213.63 144.85H227.56C230.34 144.85 232.59 147.1 232.59 149.88V182.3C232.59 185.08 230.34 187.33 227.56 187.33Z" fill="#AF191A"/>
<path d="M217.19 193.55H0V138.62H217.19C221 138.62 224.08 141.71 224.08 145.51V186.66C224.08 190.47 220.99 193.55 217.19 193.55Z" fill="white"/>
<path d="M3.60999 190.14V142.04H218.57C219.61 142.04 220.46 142.89 220.46 143.93V188.25C220.46 189.29 219.61 190.14 218.57 190.14H3.60999Z" fill="url(#paint5_linear_155_486)"/>
<path d="M63.8411 178.726V160.35H65.8249V162.473H66.0685C66.2193 162.241 66.4282 161.945 66.695 161.586C66.9676 161.22 67.3562 160.895 67.8609 160.611C68.3713 160.321 69.0616 160.176 69.9316 160.176C71.0569 160.176 72.0488 160.457 72.9073 161.02C73.7658 161.583 74.4357 162.38 74.9172 163.413C75.3986 164.445 75.6393 165.663 75.6393 167.067C75.6393 168.482 75.3986 169.709 74.9172 170.747C74.4357 171.78 73.7687 172.58 72.916 173.149C72.0633 173.712 71.0801 173.993 69.9664 173.993C69.108 173.993 68.4206 173.851 67.9044 173.567C67.3881 173.276 66.9908 172.949 66.7124 172.583C66.434 172.212 66.2193 171.905 66.0685 171.661H65.8945V178.726H63.8411ZM65.8597 167.032C65.8597 168.042 66.0076 168.932 66.3034 169.703C66.5993 170.469 67.0314 171.069 67.5999 171.504C68.1683 171.934 68.8644 172.148 69.688 172.148C70.5465 172.148 71.2629 171.922 71.8371 171.47C72.4171 171.011 72.8522 170.397 73.1422 169.625C73.438 168.848 73.5859 167.984 73.5859 167.032C73.5859 166.093 73.4409 165.246 73.1509 164.492C72.8667 163.732 72.4345 163.131 71.8545 162.691C71.2803 162.244 70.5581 162.021 69.688 162.021C68.8528 162.021 68.1509 162.232 67.5825 162.656C67.014 163.073 66.5848 163.659 66.2947 164.413C66.0047 165.162 65.8597 166.035 65.8597 167.032ZM78.7716 173.714V160.35H80.7553V162.369H80.8945C81.1382 161.707 81.579 161.171 82.217 160.759C82.8551 160.347 83.5744 160.141 84.3748 160.141C84.5256 160.141 84.7141 160.144 84.9404 160.15C85.1666 160.156 85.3377 160.165 85.4537 160.176V162.264C85.3841 162.247 85.2246 162.221 84.9752 162.186C84.7316 162.145 84.4734 162.125 84.2008 162.125C83.5512 162.125 82.9711 162.261 82.4607 162.534C81.956 162.801 81.5558 163.172 81.26 163.648C80.9699 164.118 80.8249 164.654 80.8249 165.257V173.714H78.7716ZM92.9102 173.993C91.7037 173.993 90.6451 173.706 89.7345 173.131C88.8296 172.557 88.1219 171.754 87.6115 170.721C87.1068 169.689 86.8545 168.482 86.8545 167.102C86.8545 165.71 87.1068 164.495 87.6115 163.456C88.1219 162.418 88.8296 161.612 89.7345 161.037C90.6451 160.463 91.7037 160.176 92.9102 160.176C94.1167 160.176 95.1724 160.463 96.0773 161.037C96.988 161.612 97.6956 162.418 98.2003 163.456C98.7107 164.495 98.9659 165.71 98.9659 167.102C98.9659 168.482 98.7107 169.689 98.2003 170.721C97.6956 171.754 96.988 172.557 96.0773 173.131C95.1724 173.706 94.1167 173.993 92.9102 173.993ZM92.9102 172.148C93.8267 172.148 94.5808 171.913 95.1724 171.444C95.7641 170.974 96.202 170.356 96.4862 169.59C96.7704 168.825 96.9125 167.995 96.9125 167.102C96.9125 166.209 96.7704 165.376 96.4862 164.605C96.202 163.833 95.7641 163.21 95.1724 162.734C94.5808 162.258 93.8267 162.021 92.9102 162.021C91.9937 162.021 91.2397 162.258 90.648 162.734C90.0564 163.21 89.6184 163.833 89.3342 164.605C89.05 165.376 88.9079 166.209 88.9079 167.102C88.9079 167.995 89.05 168.825 89.3342 169.59C89.6184 170.356 90.0564 170.974 90.648 171.444C91.2397 171.913 91.9937 172.148 92.9102 172.148ZM91.9705 158.54L94.0935 154.503H96.4949L93.7803 158.54H91.9705ZM107.912 160.35V162.09H100.987V160.35H107.912ZM103.005 157.148H105.059V169.886C105.059 170.466 105.143 170.901 105.311 171.191C105.485 171.475 105.705 171.667 105.972 171.765C106.245 171.858 106.532 171.905 106.834 171.905C107.06 171.905 107.245 171.893 107.39 171.87C107.535 171.841 107.651 171.818 107.738 171.8L108.156 173.645C108.017 173.697 107.823 173.749 107.573 173.801C107.324 173.859 107.008 173.888 106.625 173.888C106.045 173.888 105.476 173.764 104.919 173.514C104.368 173.265 103.91 172.885 103.545 172.375C103.185 171.864 103.005 171.22 103.005 170.443V157.148ZM116.461 173.993C115.173 173.993 114.062 173.709 113.128 173.14C112.2 172.566 111.484 171.765 110.979 170.739C110.481 169.706 110.231 168.506 110.231 167.137C110.231 165.768 110.481 164.561 110.979 163.517C111.484 162.467 112.186 161.649 113.085 161.064C113.99 160.472 115.046 160.176 116.252 160.176C116.948 160.176 117.635 160.292 118.314 160.524C118.993 160.756 119.611 161.133 120.167 161.655C120.724 162.171 121.168 162.856 121.499 163.709C121.829 164.561 121.995 165.611 121.995 166.858V167.728H111.693V165.953H119.906C119.906 165.199 119.756 164.526 119.454 163.935C119.158 163.343 118.735 162.876 118.184 162.534C117.638 162.192 116.995 162.021 116.252 162.021C115.434 162.021 114.727 162.224 114.129 162.63C113.537 163.03 113.082 163.552 112.763 164.196C112.444 164.84 112.285 165.53 112.285 166.267V167.45C112.285 168.459 112.459 169.315 112.807 170.017C113.16 170.713 113.651 171.243 114.277 171.609C114.903 171.968 115.631 172.148 116.461 172.148C117 172.148 117.488 172.073 117.923 171.922C118.363 171.765 118.743 171.533 119.062 171.226C119.381 170.913 119.628 170.524 119.802 170.06L121.786 170.617C121.577 171.29 121.226 171.881 120.733 172.392C120.24 172.897 119.631 173.291 118.906 173.575C118.181 173.854 117.366 173.993 116.461 173.993ZM134.584 163.343L132.74 163.865C132.624 163.558 132.453 163.259 132.227 162.969C132.006 162.673 131.705 162.43 131.322 162.238C130.939 162.047 130.449 161.951 129.851 161.951C129.033 161.951 128.352 162.14 127.807 162.517C127.267 162.888 126.997 163.361 126.997 163.935C126.997 164.445 127.183 164.848 127.554 165.144C127.926 165.44 128.506 165.687 129.294 165.884L131.278 166.371C132.473 166.661 133.363 167.105 133.949 167.702C134.535 168.294 134.828 169.057 134.828 169.991C134.828 170.756 134.608 171.441 134.167 172.044C133.732 172.647 133.123 173.123 132.34 173.471C131.557 173.819 130.646 173.993 129.608 173.993C128.245 173.993 127.116 173.697 126.223 173.105C125.33 172.514 124.764 171.649 124.526 170.513L126.475 170.025C126.661 170.745 127.012 171.284 127.528 171.644C128.05 172.003 128.732 172.183 129.573 172.183C130.53 172.183 131.29 171.98 131.852 171.574C132.421 171.162 132.705 170.669 132.705 170.095C132.705 169.631 132.543 169.242 132.218 168.929C131.893 168.61 131.394 168.372 130.721 168.216L128.494 167.694C127.27 167.404 126.371 166.954 125.797 166.345C125.228 165.73 124.944 164.962 124.944 164.039C124.944 163.285 125.156 162.618 125.579 162.038C126.008 161.458 126.591 161.003 127.328 160.672C128.071 160.341 128.912 160.176 129.851 160.176C131.174 160.176 132.212 160.466 132.966 161.046C133.726 161.626 134.265 162.392 134.584 163.343ZM143.522 173.993C142.235 173.993 141.124 173.709 140.19 173.14C139.262 172.566 138.545 171.765 138.041 170.739C137.542 169.706 137.293 168.506 137.293 167.137C137.293 165.768 137.542 164.561 138.041 163.517C138.545 162.467 139.247 161.649 140.146 161.064C141.051 160.472 142.107 160.176 143.313 160.176C144.009 160.176 144.697 160.292 145.376 160.524C146.054 160.756 146.672 161.133 147.229 161.655C147.786 162.171 148.229 162.856 148.56 163.709C148.891 164.561 149.056 165.611 149.056 166.858V167.728H138.754V165.953H146.968C146.968 165.199 146.817 164.526 146.515 163.935C146.219 163.343 145.796 162.876 145.245 162.534C144.7 162.192 144.056 162.021 143.313 162.021C142.496 162.021 141.788 162.224 141.19 162.63C140.599 163.03 140.143 163.552 139.824 164.196C139.505 164.84 139.346 165.53 139.346 166.267V167.45C139.346 168.459 139.52 169.315 139.868 170.017C140.222 170.713 140.712 171.243 141.338 171.609C141.965 171.968 142.693 172.148 143.522 172.148C144.062 172.148 144.549 172.073 144.984 171.922C145.425 171.765 145.805 171.533 146.124 171.226C146.443 170.913 146.689 170.524 146.863 170.06L148.847 170.617C148.638 171.29 148.287 171.881 147.794 172.392C147.301 172.897 146.692 173.291 145.967 173.575C145.242 173.854 144.427 173.993 143.522 173.993Z" fill="#020203"/>
<defs>
<linearGradient id="paint0_linear_155_486" x1="2.43604" y1="29.467" x2="228.737" y2="29.467" gradientUnits="userSpaceOnUse">
<stop stop-color="#080609"/>
<stop offset="1" stop-color="#080609" stop-opacity="0.2"/>
</linearGradient>
<linearGradient id="paint1_linear_155_486" x1="3.61169" y1="27.5331" x2="220.462" y2="27.5331" gradientUnits="userSpaceOnUse">
<stop stop-color="#EBF3FC"/>
<stop offset="1" stop-color="white"/>
</linearGradient>
<linearGradient id="paint2_linear_155_486" x1="2.43615" y1="98.7443" x2="228.737" y2="98.7443" gradientUnits="userSpaceOnUse">
<stop stop-color="#080609"/>
<stop offset="1" stop-color="#080609" stop-opacity="0.2"/>
</linearGradient>
<linearGradient id="paint3_linear_155_486" x1="3.61169" y1="96.8104" x2="220.462" y2="96.8104" gradientUnits="userSpaceOnUse">
<stop stop-color="#EBF3FC"/>
<stop offset="1" stop-color="white"/>
</linearGradient>
<linearGradient id="paint4_linear_155_486" x1="2.43615" y1="168.021" x2="228.737" y2="168.021" gradientUnits="userSpaceOnUse">
<stop stop-color="#080609"/>
<stop offset="1" stop-color="#080609" stop-opacity="0.2"/>
</linearGradient>
<linearGradient id="paint5_linear_155_486" x1="3.61169" y1="166.087" x2="220.462" y2="166.087" gradientUnits="userSpaceOnUse">
<stop stop-color="#EBF3FC"/>
<stop offset="1" stop-color="white"/>
</linearGradient>
</defs>
</svg>
